<svg width="50" height="50" viewBox="0 0 50 50" fill="none" xmlns="http://www.w3.org/2000/svg">
<rect x="0.25" y="0.25" width="49.5" height="49.5" rx="9.75" stroke="white" stroke-width="0.5"/>
<path d="M23.2891 32.9929C23.2059 32.955 23.1151 32.9248 23.0319 32.887C22.6461 32.6752 22.4721 32.3423 22.4721 31.9036C22.4721 31.2077 22.4721 30.5117 22.4721 29.8158C22.4721 29.7477 22.4721 29.6872 22.4721 29.604C22.162 29.604 21.867 29.604 21.5795 29.604C20.9441 29.604 20.5508 29.2182 20.5508 28.5904C20.5508 26.3513 20.5508 24.1123 20.5508 21.8732C20.5508 21.8278 20.5508 21.7749 20.5583 21.7144H29.9306C29.9306 21.7673 29.9382 21.8278 29.9382 21.8883C29.9382 24.1123 29.9382 26.3438 29.9382 28.5677C29.9382 29.2258 29.5524 29.604 28.8943 29.604C28.6069 29.604 28.3194 29.604 28.0168 29.604V29.8007C28.0168 30.4437 28.0017 31.0866 28.0168 31.7221C28.0395 32.3499 27.8202 32.7886 27.1999 32.9929H26.7385C26.7385 32.9929 26.7158 32.9702 26.7006 32.9626C26.1787 32.7811 25.9366 32.4558 25.9366 31.896C25.9366 31.1925 25.9366 30.4966 25.9366 29.7931C25.9366 29.7326 25.9366 29.6721 25.9366 29.6191H24.5448C24.5448 29.6948 24.5448 29.7553 24.5448 29.8158C24.5448 30.542 24.5448 31.2758 24.5448 32.0019C24.5448 32.4255 24.2876 32.7811 23.8942 32.9324C23.8413 32.955 23.7959 32.9777 23.7505 33.0004H23.2891V32.9929Z" fill="white"/>
<path d="M20.5172 21.2752C20.4719 19.4749 21.3871 18.31 22.8925 17.4779C22.8395 17.3947 22.779 17.3115 22.726 17.2207C22.5294 16.9181 22.3403 16.6156 22.1436 16.3206C22.0755 16.2147 22.0528 16.1088 22.1738 16.0331C22.2873 15.965 22.3705 16.0255 22.431 16.1239C22.658 16.4794 22.8849 16.8274 23.1118 17.1829C23.1421 17.2359 23.1799 17.2812 23.2177 17.3342C24.5642 16.8122 25.9031 16.8122 27.2571 17.3342C27.2798 17.2964 27.3101 17.2585 27.3403 17.2207C27.5673 16.8728 27.7942 16.5172 28.0211 16.1617C28.0892 16.0558 28.1648 15.9423 28.3086 16.0331C28.4523 16.1239 28.3842 16.2374 28.3086 16.3508C28.0665 16.7215 27.8244 17.0997 27.5748 17.4779C29.0726 18.31 29.9954 19.4825 29.95 21.2828H20.5172V21.2752ZM22.6126 19.2177C22.6126 19.4673 22.8017 19.6565 23.0437 19.664C23.2934 19.664 23.5052 19.4673 23.5052 19.2253C23.5052 18.9832 23.2934 18.7714 23.0437 18.7714C22.8017 18.7714 22.605 18.9757 22.605 19.2177H22.6126ZM27.8623 19.2177C27.8623 18.9757 27.6656 18.7714 27.4235 18.7714C27.1815 18.7714 26.9697 18.9832 26.9697 19.2253C26.9697 19.4673 27.1815 19.6716 27.4311 19.664C27.6807 19.664 27.8623 19.4673 27.8623 19.2177Z" fill="white"/>
<path d="M20.0651 24.7474C20.0651 25.4811 20.0651 26.2149 20.0651 26.9562C20.0651 27.4781 19.6944 27.9093 19.1876 27.9774C18.6505 28.053 18.174 27.7429 18.0378 27.2285C18.0076 27.115 18 27.0016 18 26.8881C18 25.4736 18 24.059 18 22.6445C18 22.0923 18.2874 21.7065 18.7867 21.5779C19.4372 21.4115 20.0651 21.8956 20.0726 22.5688V22.5991C20.0726 23.3177 20.0726 24.0363 20.0726 24.7549L20.0651 24.7474Z" fill="white"/>
<path d="M30.4219 24.763C30.4219 24.0368 30.4219 23.3031 30.4219 22.5769C30.4219 22.0322 30.8379 21.5784 31.3523 21.5557C31.9801 21.533 32.434 21.8961 32.487 22.4861C32.487 22.5239 32.4945 22.5618 32.4945 22.5996C32.4945 24.0444 32.4945 25.4892 32.4945 26.9264C32.4945 27.4635 32.1844 27.8493 31.6927 27.9627C31.0422 28.114 30.4294 27.6375 30.4219 26.9718V26.9415C30.4219 26.2154 30.4219 25.4892 30.4219 24.7706V24.763Z" fill="white"/>
</svg>
