<svg width="50" height="50" viewBox="0 0 50 50" fill="none" xmlns="http://www.w3.org/2000/svg">
<rect x="0.25" y="0.25" width="49.5" height="49.5" rx="9.75" stroke="white" stroke-width="0.5"/>
<path d="M28.865 34.2H28.725C28.595 34.18 28.455 34.18 28.325 34.14C27.895 34.01 27.455 33.88 27.035 33.72C26.455 33.51 25.865 33.37 25.265 33.52C24.515 33.71 23.785 33.97 23.045 34.2H22.445C21.935 34.05 21.485 33.78 21.115 33.39C20.335 32.59 19.725 31.68 19.215 30.69C18.635 29.56 18.275 28.35 18.095 27.09C17.965 26.13 17.945 25.18 18.185 24.24C18.535 22.84 19.255 21.7 20.545 20.97C21.335 20.53 22.175 20.31 23.065 20.5C23.665 20.63 24.245 20.86 24.825 21.07C25.275 21.24 25.715 21.27 26.165 21.07C26.475 20.93 26.805 20.83 27.125 20.71C28.325 20.26 29.515 20.29 30.695 20.8C31.385 21.1 31.945 21.56 32.365 22.21C30.995 23.07 30.305 24.28 30.425 25.93C30.545 27.57 31.415 28.66 32.855 29.35C32.805 29.49 32.765 29.61 32.725 29.72C32.265 30.95 31.575 32.04 30.755 33.06C30.465 33.42 30.135 33.75 29.705 33.94C29.445 34.05 29.155 34.1 28.875 34.18L28.865 34.2Z" fill="white"/>
<path d="M29.0461 16C29.1061 16.69 29.0061 17.33 28.7261 17.93C28.3761 18.68 27.8661 19.3 27.1761 19.76C26.6461 20.12 26.0461 20.26 25.3961 20.2C25.3061 19.09 25.6761 18.15 26.4161 17.34C27.1161 16.57 27.9961 16.14 29.0461 16Z" fill="white"/>
</svg>
