<svg width="21" height="21" viewBox="0 0 21 21" fill="none" xmlns="http://www.w3.org/2000/svg">
<rect width="21" height="21" rx="5" transform="matrix(-0.000332316 1 1 0.000332316 0.0078125 0)" fill="#212121"/>
<path d="M12.0041 10.0039C11.7279 10.0038 11.504 10.2276 11.5039 10.5037C11.5038 10.7799 11.7276 11.0038 12.0037 11.0039L12.0041 10.0039ZM12.5323 10.8576C12.7277 10.6624 12.7278 10.3459 12.5326 10.1505L9.35165 6.96749C9.15646 6.77216 8.83987 6.77206 8.64455 6.96726C8.44922 7.16245 8.44912 7.47904 8.64431 7.67436L11.4718 10.5037L8.64243 13.3312C8.44711 13.5264 8.447 13.843 8.6422 14.0383C8.83739 14.2337 9.15398 14.2338 9.3493 14.0386L12.5323 10.8576ZM12.0037 11.0039L12.1787 11.004L12.1791 10.004L12.0041 10.0039L12.0037 11.0039Z" fill="white"/>
</svg>
