<svg width="9" height="102" viewBox="0 0 9 102" fill="none" xmlns="http://www.w3.org/2000/svg">
<path d="M1 95.0684H8V96.1884H2.064L2.064 99.9684H8V101.088H1L1 95.0684ZM2.568 91.8495C3.06267 92.3628 3.702 92.6195 4.486 92.6195C5.27 92.6195 5.914 92.3628 6.418 91.8495C6.91267 91.3268 7.16 90.6922 7.16 89.9455C7.16 89.1988 6.91267 88.5688 6.418 88.0555C5.914 87.5328 5.27 87.2715 4.486 87.2715C3.702 87.2715 3.06267 87.5328 2.568 88.0555C2.064 88.5688 1.812 89.1988 1.812 89.9455C1.812 90.6922 2.064 91.3268 2.568 91.8495ZM7.188 92.6475C6.47867 93.3755 5.578 93.7395 4.486 93.7395C3.394 93.7395 2.49333 93.3755 1.784 92.6475C1.07467 91.9102 0.719999 91.0095 0.719999 89.9455C0.719999 88.8815 1.07467 87.9855 1.784 87.2575C2.49333 86.5202 3.394 86.1515 4.486 86.1515C5.578 86.1515 6.47867 86.5202 7.188 87.2575C7.89733 87.9855 8.252 88.8815 8.252 89.9455C8.252 91.0095 7.89733 91.9102 7.188 92.6475ZM2.386 84.8332C1.882 84.5905 1.48533 84.2359 1.196 83.7692C0.897333 83.2932 0.748 82.7659 0.748 82.1872C0.748 81.4592 0.958 80.8525 1.378 80.3672C1.78867 79.8725 2.30667 79.6252 2.932 79.6252C3.25867 79.6252 3.562 79.7092 3.842 79.8772C4.11267 80.0359 4.32733 80.2599 4.486 80.5492C4.654 80.2225 4.89667 79.9659 5.214 79.7792C5.522 79.5832 5.86267 79.4852 6.236 79.4852C6.81467 79.4852 7.29533 79.7419 7.678 80.2552C8.06067 80.7685 8.252 81.4079 8.252 82.1732C8.252 82.8265 8.10267 83.4145 7.804 83.9372C7.496 84.4505 7.076 84.8332 6.544 85.0852L6.04 84.0492C6.38533 83.8905 6.66067 83.6479 6.866 83.3212C7.062 82.9852 7.16 82.6072 7.16 82.1872C7.16 81.7392 7.05733 81.3659 6.852 81.0672C6.64667 80.7592 6.39 80.6052 6.082 80.6052C5.76467 80.6052 5.49867 80.7359 5.284 80.9972C5.06933 81.2492 4.962 81.5665 4.962 81.9492V83.0692H4.038V81.9492C4.038 81.6039 3.94467 81.3192 3.758 81.0952C3.57133 80.8619 3.338 80.7452 3.058 80.7452C2.71267 80.7452 2.428 80.8852 2.204 81.1652C1.97067 81.4452 1.854 81.7952 1.854 82.2152C1.854 82.5605 1.94267 82.8732 2.12 83.1532C2.29733 83.4239 2.54 83.6292 2.848 83.7692L2.386 84.8332ZM8 78.1607H1V77.0407H3.954V72.6727H1V71.5527H8V72.6727H5.018V77.0407H8L8 78.1607ZM4.766 65.6879L5.004 67.6899C5.12533 68.6325 5.48467 69.1039 6.082 69.1039C6.39933 69.1039 6.656 68.9732 6.852 68.7119C7.03867 68.4505 7.132 68.1005 7.132 67.6619C7.132 67.0645 6.95467 66.5885 6.6 66.2339C6.24533 65.8699 5.77867 65.6879 5.2 65.6879V65.1979C6.04933 65.1979 6.754 65.4592 7.314 65.9819C7.874 66.5045 8.154 67.1579 8.154 67.9419C8.154 68.6045 7.96733 69.1552 7.594 69.5939C7.21133 70.0232 6.72133 70.2379 6.124 70.2379C5.55467 70.2285 5.08333 70.0232 4.71 69.6219C4.33667 69.2112 4.108 68.6465 4.024 67.9279L3.772 65.6879H3.492C3.06267 65.6879 2.68933 65.8559 2.372 66.1919C2.05467 66.5185 1.896 66.9199 1.896 67.3959C1.896 67.8252 2.01267 68.2079 2.246 68.5439C2.47933 68.8705 2.78267 69.0759 3.156 69.1599L2.82 70.2239C2.232 70.0372 1.756 69.6919 1.392 69.1879C1.028 68.6745 0.845999 68.0959 0.845999 67.4519C0.845999 66.6679 1.098 65.9912 1.602 65.4219C2.09667 64.8525 2.68933 64.5679 3.38 64.5679H8V65.6879H4.766ZM8 62.9575H1V61.8375H3.94V61.4735L1 58.6175V57.1615L4.5 60.4935L8 57.1615V58.6175L5.102 61.4735V61.8375H8V62.9575ZM2.568 54.3339C3.06267 54.8472 3.702 55.1039 4.486 55.1039C5.27 55.1039 5.914 54.8472 6.418 54.3339C6.91267 53.8112 7.16 53.1765 7.16 52.4299C7.16 51.6832 6.91267 51.0532 6.418 50.5399C5.914 50.0172 5.27 49.7559 4.486 49.7559C3.702 49.7559 3.06267 50.0172 2.568 50.5399C2.064 51.0532 1.812 51.6832 1.812 52.4299C1.812 53.1765 2.064 53.8112 2.568 54.3339ZM7.188 55.1319C6.47867 55.8599 5.578 56.2239 4.486 56.2239C3.394 56.2239 2.49333 55.8599 1.784 55.1319C1.07467 54.3945 0.719999 53.4939 0.719999 52.4299C0.719999 51.3659 1.07467 50.4699 1.784 49.7419C2.49333 49.0045 3.394 48.6359 4.486 48.6359C5.578 48.6359 6.47867 49.0045 7.188 49.7419C7.89733 50.4699 8.252 51.3659 8.252 52.4299C8.252 53.4939 7.89733 54.3945 7.188 55.1319ZM8 47.2896H1V45.9736L5.62 43.2296L1 40.4856V39.1696H8V40.2896H2.624L6.964 42.8376V43.6076L2.624 46.1696H8V47.2896ZM8 31.2415V32.3615H2.4L8 36.2115V37.5415H1V36.4215H6.46L1 32.5855V31.2415H8ZM1 24.1375H2.064V26.5175H8V27.6375H2.064V30.0175H1L1 24.1375ZM4.864 18.7829L4.864 21.7789H6.908L6.908 18.7829C6.908 18.4283 6.81467 18.1343 6.628 17.9009C6.432 17.6676 6.194 17.5509 5.914 17.5509C5.61533 17.5509 5.368 17.6676 5.172 17.9009C4.96667 18.1343 4.864 18.4283 4.864 18.7829ZM3.8 18.6429C3.8 18.0176 4.00533 17.4949 4.416 17.0749C4.82667 16.6456 5.33067 16.4309 5.928 16.4309C6.516 16.4309 7.01067 16.6456 7.412 17.0749C7.804 17.4949 8 18.0176 8 18.6429L8 22.8989H1V21.7789H3.8L3.8 18.6429ZM2.568 13.4963C3.06267 14.0003 3.702 14.2523 4.486 14.2523C5.27 14.2523 5.914 14.0003 6.418 13.4963C6.91267 12.9923 7.16 12.3763 7.16 11.6483C7.16 11.1256 7.034 10.6543 6.782 10.2343C6.53 9.8143 6.17533 9.4923 5.718 9.2683L6.18 8.2463C6.81467 8.5543 7.31867 9.01163 7.692 9.6183C8.06533 10.225 8.252 10.9016 8.252 11.6483C8.252 12.6936 7.89733 13.5756 7.188 14.2943C6.47867 15.013 5.578 15.3723 4.486 15.3723C3.394 15.3723 2.49333 15.013 1.784 14.2943C1.07467 13.5756 0.719999 12.6936 0.719999 11.6483C0.719999 10.8923 0.911333 10.2063 1.294 9.5903C1.67667 8.9743 2.19933 8.51696 2.862 8.2183L3.324 9.2403C2.848 9.45496 2.47933 9.77696 2.218 10.2063C1.94733 10.6356 1.812 11.1163 1.812 11.6483C1.812 12.3763 2.064 12.9923 2.568 13.4963ZM4.416 4.62117V2.01717H2.092V4.62117C2.092 5.01317 2.204 5.34451 2.428 5.61517C2.64267 5.87651 2.90867 6.00717 3.226 6.00717C3.57133 6.00717 3.856 5.87651 4.08 5.61517C4.304 5.34451 4.416 5.01317 4.416 4.62117ZM5.438 3.80917L8 5.79717V7.16917L5.368 5.09717C5.33067 5.69451 5.10667 6.18917 4.696 6.58117C4.28533 6.97317 3.79067 7.16917 3.212 7.16917C2.58667 7.16917 2.064 6.94051 1.644 6.48317C1.21467 6.02584 1 5.45651 1 4.77517V0.897171H8V2.01717H5.438V3.80917Z" fill="white"/>
</svg>
