<svg width="161" height="18" viewBox="0 0 161 18" fill="none" xmlns="http://www.w3.org/2000/svg">
<path d="M153.318 0.45752H150.414L143.598 15.0593H146.317L147.968 11.5357H155.785L157.435 15.0593H160.175L153.32 0.45752H153.318ZM149.077 9.15029L151.865 3.20716L154.652 9.15029H149.075H149.077Z" fill="#212121"/>
<path d="M44.5509 0.45752L37.7344 15.0593H40.4537L42.1044 11.5357H49.9214L51.5721 15.0593H54.3119L47.4567 0.45752H44.5532H44.5509ZM43.214 9.15029L46.0016 3.20716L48.7891 9.15029H43.2117H43.214Z" fill="#212121"/>
<path d="M79.2588 0.45752H75.6254L70.7642 6.28002H68.6929V0.45752H65.7734V15.0593H68.6929V9.00462H70.7642L75.6231 15.0593H79.3497L73.0584 7.59565L79.2588 0.45752Z" fill="#212121"/>
<path d="M137.303 6.90987C136.696 6.98953 134.97 7.14887 134.781 7.16252C134.415 7.18984 133.974 7.19439 133.554 7.19439C132.915 7.19439 132.385 7.1557 131.976 7.08286C131.598 7.01457 131.298 6.89394 131.087 6.72777C130.88 6.56389 130.734 6.34992 130.641 6.06995C130.543 5.7786 130.493 5.39392 130.493 4.92503V0.45459H127.715V4.92503C127.715 6.47284 128.126 7.70198 128.94 8.57831C129.85 9.55935 131.63 9.90761 132.876 9.90761C133.551 9.90761 134.202 9.88485 134.807 9.8416C135.323 9.80746 136.721 9.65723 137.303 9.57756V15.0586H140.172V0.456868H137.303V6.90987Z" fill="#212121"/>
<path d="M85.3965 8.81537C85.2146 10.2289 84.9509 11.2418 84.6189 11.8222C84.2915 12.3753 83.7367 12.6439 82.9205 12.6439H82.5703V15.1409H82.8386C85.6716 15.1409 87.3974 13.4429 87.8294 10.2312L88.798 3.0953H94.605V15.1409H97.2584V0.459473H86.406L85.3988 8.81765L85.3965 8.81537Z" fill="#212121"/>
<path d="M121.956 2.25524C121.29 1.56783 120.487 1.01699 119.571 0.618655C118.657 0.222598 117.654 0.0200195 116.597 0.0200195C115.644 0.0200195 114.726 0.181627 113.871 0.498017C113.018 0.814408 112.247 1.26737 111.579 1.84097C110.908 2.41685 110.349 3.11108 109.915 3.90092C109.512 4.63613 109.237 5.4419 109.089 6.29775H105.981V0.454769H103.109V15.0565H105.981V9.00642H109.085C109.219 9.8873 109.487 10.7181 109.887 11.4784C110.322 12.3069 110.885 13.0262 111.563 13.6203C112.236 14.2098 113.016 14.6741 113.88 15.0019C114.744 15.3274 115.681 15.4913 116.67 15.4913C117.716 15.4913 118.705 15.2887 119.61 14.8904C120.515 14.4943 121.313 13.9458 121.979 13.2561C122.647 12.5664 123.177 11.7424 123.552 10.8114C123.927 9.8782 124.116 8.86074 124.116 7.79093C124.116 6.72112 123.923 5.64676 123.539 4.7067C123.154 3.76663 122.622 2.94037 121.954 2.25068M120.96 9.82584C120.728 10.4404 120.399 10.9753 119.98 11.4169C119.562 11.8585 119.059 12.2113 118.486 12.4662C117.918 12.7189 117.293 12.8464 116.624 12.8464C115.919 12.8464 115.267 12.7189 114.68 12.464C114.094 12.209 113.58 11.8494 113.152 11.3919C112.725 10.9344 112.384 10.3881 112.145 9.76894C111.904 9.14982 111.781 8.45786 111.781 7.71582C111.781 6.97378 111.904 6.3319 112.145 5.7105C112.384 5.09592 112.723 4.55419 113.15 4.1035C113.577 3.65282 114.087 3.29546 114.669 3.0428C115.246 2.79014 115.878 2.66268 116.547 2.66268C117.215 2.66268 117.845 2.79014 118.423 3.0428C118.998 3.29546 119.51 3.65737 119.942 4.11716C120.369 4.57468 120.708 5.12551 120.949 5.75147C121.188 6.37514 121.31 7.06255 121.31 7.79321C121.31 8.52387 121.192 9.20444 120.96 9.82584Z" fill="#212121"/>
<path d="M32.3429 7.44315V7.22918C32.9704 7.02888 33.4866 6.63737 33.8913 6.05239C34.296 5.46741 34.5006 4.8187 34.5006 4.10625C34.5006 3.30731 34.2869 2.59941 33.8594 1.97801C33.432 1.35889 32.8385 0.874058 32.0769 0.523525C31.3152 0.175267 30.4421 0 29.4598 0H21.6133V15.1367H29.5667C30.6058 15.1367 31.5312 14.9591 32.3429 14.6018C33.1546 14.2467 33.7867 13.7459 34.2437 13.104C34.6984 12.4621 34.9281 11.736 34.9281 10.9234C34.9281 10.1108 34.6848 9.38018 34.2028 8.73147C33.7185 8.08275 33.1 7.65255 32.3452 7.43859M24.3053 2.17832H29.0346C29.8464 2.17832 30.508 2.37407 31.0219 2.76557C31.5357 3.15708 31.7904 3.66012 31.7904 4.27241C31.7904 4.88471 31.5334 5.38547 31.0219 5.77014C30.508 6.15482 29.8464 6.3483 29.0346 6.3483H24.3053V2.17832ZM31.3402 12.3119C30.7558 12.7398 30.0078 12.9538 29.0983 12.9538H24.3053V8.4219H29.0983C30.0101 8.4219 30.7558 8.63132 31.3402 9.05241C31.9245 9.47351 32.2156 10.0107 32.2156 10.6662C32.2156 11.3218 31.9245 11.884 31.3402 12.3119Z" fill="#212121"/>
<path d="M14.7177 0.00195312H3.25594V8.62644C3.25594 12.2774 1.37559 12.8374 0.995881 12.8374H0V17.9065H2.58293V15.2137H13.9719V17.9065H16.5548V12.8374H14.7177V0.00195312ZM12.1347 12.8374H4.34732C4.34732 12.8374 5.83887 11.9929 5.83887 8.71749V2.35553H12.1347V12.8351V12.8374Z" fill="#212121"/>
</svg>
