<svg width="181" height="76" viewBox="0 0 181 76" fill="none" xmlns="http://www.w3.org/2000/svg">
<path d="M60.7371 74.4055V75.9999H60.121V74.9839H56.3018L56.2941 75.9999H55.678L55.6857 74.4055H55.9107C56.2021 74.3876 56.4092 74.1573 56.5268 73.712C56.6469 73.2667 56.7185 72.6397 56.7466 71.831L56.7926 70.3364H60.0546V74.4055H60.7371ZM57.1735 73.5149C57.0917 73.9449 56.9613 74.2417 56.7798 74.4055H59.4001V70.9148H57.3653L57.332 71.8899C57.309 72.545 57.2579 73.0875 57.1761 73.5175" fill="#212121"/>
<path d="M66.3407 74.4055V74.9839H62.9714V70.3364H66.2461V70.9148H63.6335V72.3428H65.9623V72.9058H63.6335V74.4055H66.3407Z" fill="#212121"/>
<path d="M72.3124 72.9749C72.4734 73.1669 72.5552 73.4151 72.5552 73.7145C72.5552 74.1163 72.407 74.4286 72.113 74.6512C71.819 74.8713 71.3921 74.9839 70.8297 74.9839H68.7079V70.3364H70.7044C71.2131 70.3364 71.6094 70.4388 71.8957 70.6461C72.182 70.8534 72.3226 71.1477 72.3226 71.5316C72.3226 71.7824 72.2587 71.9999 72.1334 72.1765C72.0082 72.3531 71.8292 72.4861 71.5992 72.5757C71.9136 72.6499 72.1513 72.7856 72.3124 72.9775M69.3649 72.3838H70.6584C70.9805 72.3838 71.2285 72.3198 71.3972 72.1918C71.5685 72.0639 71.6528 71.8745 71.6528 71.6263C71.6528 71.378 71.5659 71.1886 71.3946 71.0581C71.2208 70.9276 70.9754 70.8636 70.6584 70.8636H69.3649V72.3838ZM71.8855 73.6659C71.8855 73.3998 71.796 73.2053 71.6171 73.0773C71.4381 72.9519 71.1722 72.8879 70.8195 72.8879H69.3674V74.4618H70.8195C71.5301 74.4618 71.888 74.1957 71.888 73.6659" fill="#212121"/>
<path d="M78.3557 74.4055V74.9839H74.9864V70.3364H78.2637V70.9148H75.6511V72.3428H77.9774V72.9058H75.6511V74.4055H78.3557Z" fill="#212121"/>
<path d="M84.5166 70.3364V74.9839H83.8673V70.9148H81.8119L81.7659 72.2763C81.7429 72.9186 81.6918 73.4382 81.61 73.8374C81.5282 74.2366 81.4004 74.536 81.2214 74.7357C81.045 74.9378 80.8047 75.0376 80.5056 75.0376C80.3676 75.0376 80.2295 75.0197 80.0889 74.9839L80.1349 74.3927C80.2065 74.4106 80.2755 74.4183 80.3471 74.4183C80.5363 74.4183 80.6897 74.3415 80.8047 74.1906C80.9197 74.037 81.0067 73.8092 81.0629 73.5047C81.1217 73.2002 81.1575 72.7958 81.1754 72.2968L81.2495 70.339H84.5191L84.5166 70.3364Z" fill="#212121"/>
<path d="M88.1108 74.728C87.7351 74.5233 87.4411 74.2392 87.2263 73.8758C87.0116 73.5124 86.9042 73.1081 86.9042 72.6602C86.9042 72.2123 87.0116 71.808 87.2263 71.4446C87.4411 71.0812 87.7351 70.7971 88.1108 70.5924C88.4866 70.3851 88.9084 70.2827 89.3788 70.2827C89.8492 70.2827 90.2633 70.3851 90.6391 70.5924C91.0149 70.7971 91.3089 71.0812 91.5211 71.442C91.7332 71.8029 91.8381 72.2098 91.8381 72.6602C91.8381 73.1106 91.7307 73.5175 91.5211 73.8784C91.3089 74.2392 91.0149 74.5233 90.6391 74.728C90.2633 74.9327 89.8441 75.0377 89.3788 75.0377C88.9136 75.0377 88.4892 74.9353 88.1108 74.728ZM90.2966 74.2136C90.5675 74.0575 90.7823 73.8451 90.9408 73.5738C91.0967 73.3025 91.176 72.998 91.176 72.6602C91.176 72.3224 91.0967 72.0204 90.9408 71.7466C90.7848 71.4753 90.5701 71.2603 90.2966 71.1068C90.0256 70.9532 89.7188 70.8739 89.3788 70.8739C89.0388 70.8739 88.7295 70.9507 88.4534 71.1068C88.1773 71.2629 87.96 71.4753 87.8041 71.7466C87.6481 72.0178 87.5689 72.3224 87.5689 72.6602C87.5689 72.998 87.6481 73.3 87.8041 73.5738C87.96 73.8451 88.1773 74.0601 88.4534 74.2136C88.7295 74.3697 89.0388 74.4465 89.3788 74.4465C89.7188 74.4465 90.0256 74.3697 90.2966 74.2136Z" fill="#212121"/>
<path d="M98.2367 70.3364V74.9839H97.5874V70.9148H94.8955V74.9839H94.2385V70.3364H98.2367Z" fill="#212121"/>
<path d="M105.313 74.9839L105.305 71.5981L103.628 74.4183H103.324L101.647 71.6186V74.9839H101.008V70.3364H101.552L103.49 73.6019L105.4 70.3364H105.942L105.949 74.9839H105.313Z" fill="#212121"/>
<path d="M112.09 74.4055V74.9839H108.72V70.3364H111.998V70.9148H109.385V72.3428H111.711V72.9058H109.385V74.4055H112.09Z" fill="#212121"/>
<path d="M118.45 70.3364V74.9839H117.788V72.9135H115.122V74.9839H114.457V70.3364H115.122V72.3351H117.788V70.3364H118.45Z" fill="#212121"/>
<path d="M124.412 70.9148H122.819V74.9839H122.17V70.9148H120.585V70.3364H124.412V70.9148Z" fill="#212121"/>
<path d="M172.379 40.248H169.115L161.451 56.6652H164.508L166.364 52.7036H175.153L177.009 56.6652H180.09L172.382 40.248H172.379ZM167.612 50.0216L170.746 43.3395L173.88 50.0216H167.609H167.612Z" fill="#212121"/>
<path d="M50.0872 40.248L42.4232 56.6652H45.4806L47.3365 52.7036H56.1254L57.9813 56.6652H61.0617L53.3543 40.248H50.0898H50.0872ZM48.584 50.0216L51.7182 43.3395L54.8523 50.0216H48.5815H48.584Z" fill="#212121"/>
<path d="M89.1104 40.248H85.0253L79.5598 46.7944H77.2309V40.248H73.9485V56.6652H77.2309V49.8578H79.5598L85.0227 56.6652H89.2127L82.1391 48.2736L89.1104 40.248Z" fill="#212121"/>
<path d="M154.375 47.5034C153.692 47.593 151.752 47.7722 151.54 47.7875C151.128 47.8182 150.632 47.8233 150.159 47.8233C149.441 47.8233 148.845 47.7798 148.385 47.6979C147.961 47.6212 147.623 47.4855 147.386 47.2987C147.153 47.1145 146.989 46.8739 146.885 46.5591C146.775 46.2315 146.718 45.799 146.718 45.2718V40.2456H143.595V45.2718C143.595 47.0121 144.057 48.394 144.972 49.3793C145.995 50.4823 147.997 50.8739 149.398 50.8739C150.157 50.8739 150.888 50.8483 151.568 50.7997C152.148 50.7613 153.72 50.5924 154.375 50.5028V56.6653H157.601V40.2482H154.375V47.5034Z" fill="#212121"/>
<path d="M96.0127 49.6452C95.8082 51.2345 95.5116 52.3733 95.1384 53.0259C94.7703 53.6478 94.1465 53.9498 93.2288 53.9498H92.8351V56.7572H93.1367C96.322 56.7572 98.2623 54.8481 98.748 51.2371L99.837 43.214H106.366V56.7572H109.349V40.2505H97.1477L96.0152 49.6478L96.0127 49.6452Z" fill="#212121"/>
<path d="M137.114 42.27C136.365 41.4971 135.463 40.8778 134.433 40.4299C133.405 39.9846 132.277 39.7568 131.089 39.7568C130.018 39.7568 128.985 39.9385 128.024 40.2943C127.065 40.65 126.198 41.1593 125.447 41.8042C124.693 42.4517 124.064 43.2322 123.576 44.1202C123.123 44.9469 122.814 45.8528 122.648 46.8151H119.153V40.2456H115.924V56.6628H119.153V49.8605H122.642C122.793 50.8509 123.095 51.785 123.545 52.6398C124.033 53.5713 124.667 54.38 125.429 55.0479C126.186 55.7108 127.062 56.2328 128.034 56.6014C129.005 56.9673 130.059 57.1516 131.171 57.1516C132.347 57.1516 133.459 56.9238 134.476 56.476C135.493 56.0307 136.391 55.4139 137.14 54.6385C137.891 53.863 138.487 52.9366 138.909 51.8899C139.331 50.8406 139.543 49.6967 139.543 48.4939C139.543 47.2911 139.325 46.0831 138.893 45.0262C138.461 43.9692 137.863 43.0403 137.112 42.2648M135.994 50.7818C135.734 51.4728 135.363 52.0742 134.893 52.5707C134.422 53.0671 133.857 53.4638 133.213 53.7504C132.574 54.0345 131.871 54.1778 131.119 54.1778C130.327 54.1778 129.593 54.0345 128.934 53.7479C128.274 53.4613 127.696 53.0569 127.216 52.5425C126.735 52.0281 126.352 51.4139 126.083 50.7178C125.812 50.0217 125.674 49.2437 125.674 48.4094C125.674 47.5751 125.812 46.8534 126.083 46.1548C126.352 45.4638 126.733 44.8547 127.213 44.348C127.694 43.8413 128.267 43.4395 128.921 43.1554C129.57 42.8714 130.281 42.728 131.033 42.728C131.784 42.728 132.492 42.8714 133.142 43.1554C133.788 43.4395 134.364 43.8464 134.849 44.3634C135.33 44.8778 135.711 45.4971 135.982 46.2009C136.25 46.9021 136.388 47.6749 136.388 48.4964C136.388 49.3179 136.255 50.0831 135.994 50.7818Z" fill="#212121"/>
<path d="M36.3595 48.1024V47.8618C37.065 47.6366 37.6453 47.1965 38.1004 46.5388C38.5554 45.881 38.7855 45.1517 38.7855 44.3507C38.7855 43.4524 38.5452 42.6565 38.0646 41.9578C37.584 41.2617 36.9168 40.7166 36.0604 40.3225C35.204 39.9309 34.2223 39.7339 33.118 39.7339H24.2959V56.7524H33.2381C34.4064 56.7524 35.4468 56.5528 36.3595 56.151C37.2721 55.7518 37.9828 55.1888 38.4966 54.4671C39.0079 53.7454 39.2661 52.929 39.2661 52.0154C39.2661 51.1018 38.9925 50.2803 38.4506 49.5509C37.9061 48.8215 37.2107 48.3379 36.362 48.0973M27.3227 42.183H32.6399C33.5526 42.183 34.2965 42.4031 34.8742 42.8433C35.452 43.2835 35.7383 43.8491 35.7383 44.5375C35.7383 45.2259 35.4494 45.7889 34.8742 46.2214C34.2965 46.6539 33.5526 46.8714 32.6399 46.8714H27.3227V42.183ZM35.2321 53.5765C34.5751 54.0576 33.7341 54.2982 32.7115 54.2982H27.3227V49.2029H32.7115C33.7366 49.2029 34.5751 49.4383 35.2321 49.9118C35.8891 50.3852 36.2163 50.9892 36.2163 51.7262C36.2163 52.4633 35.8891 53.0954 35.2321 53.5765Z" fill="#212121"/>
<path d="M16.5475 39.7363H3.66074V49.4331C3.66074 53.538 1.54661 54.1676 1.1197 54.1676H0V59.8668H2.90405V56.8393H15.709V59.8668H18.613V54.1676H16.5475V39.7363ZM13.6434 54.1676H4.8878C4.8878 54.1676 6.56479 53.2181 6.56479 49.5354V42.3825H13.6434V54.165V54.1676Z" fill="#212121"/>
<path d="M75.963 6.41612L80.8635 11.3221V17.848L78.8261 19.8877L80.8635 21.9273V23.9695H83.9031V11.2862L88.7679 6.41612L82.3667 0.00537109L75.963 6.41612ZM82.3667 5.78144L80.5312 3.94395L82.3667 2.10646L84.2022 3.94395L82.3667 5.78144Z" fill="#212121"/>
<path d="M99.2413 11.3039L104.129 6.40819L97.728 0L91.3242 6.41075L96.1992 11.2911V23.9693H99.2413V21.9271L101.279 19.8874L99.2413 17.8477V11.3065V11.3039ZM97.728 5.77351L95.8925 3.93602L97.728 2.09853L99.5634 3.93602L97.728 5.77351Z" fill="#212121"/>
</svg>
