<svg width="11" height="76" viewBox="0 0 11 76" fill="none" xmlns="http://www.w3.org/2000/svg">
<path d="M1.595 70.915V73.93H3.71V70.78C3.71 70.44 3.62 70.155 3.44 69.925C3.25 69.695 3.015 69.58 2.735 69.58C2.405 69.58 2.135 69.71 1.925 69.97C1.705 70.22 1.595 70.535 1.595 70.915ZM4.715 70.765V73.93H6.905V70.765C6.905 70.385 6.805 70.07 6.605 69.82C6.395 69.56 6.14 69.43 5.84 69.43C5.51 69.43 5.24 69.56 5.03 69.82C4.82 70.07 4.715 70.385 4.715 70.765ZM8 70.615V75.13H0.5V70.765C0.5 70.085 0.7 69.52 1.1 69.07C1.49 68.61 1.985 68.38 2.585 68.38C2.915 68.38 3.22 68.47 3.5 68.65C3.77 68.82 3.98 69.06 4.13 69.37C4.3 69.02 4.545 68.745 4.865 68.545C5.185 68.335 5.545 68.23 5.945 68.23C6.525 68.23 7.015 68.46 7.415 68.92C7.805 69.37 8 69.935 8 70.615ZM0.5 56.3167H8V57.5167H1.64V61.5667H8V62.7667H0.5V56.3167ZM0.5 54.5929V53.3929H11V54.5929H0.5ZM2.195 52.5679C2.735 53.1179 3.425 53.3929 4.265 53.3929C5.095 53.3929 5.78 53.1179 6.32 52.5679C6.86 52.0079 7.13 51.3279 7.13 50.5279C7.13 49.7279 6.86 49.0529 6.32 48.5029C5.78 47.9429 5.095 47.6629 4.265 47.6629C3.425 47.6629 2.735 47.9429 2.195 48.5029C1.655 49.0529 1.385 49.7279 1.385 50.5279C1.385 51.3279 1.655 52.0079 2.195 52.5679ZM7.16 52.8979C6.39 53.6079 5.425 53.9629 4.265 53.9629C3.095 53.9629 2.13 53.6079 1.37 52.8979C0.61 52.1879 0.23 51.3129 0.23 50.2729C0.23 49.2029 0.61 48.3029 1.37 47.5729C2.13 46.8329 3.095 46.4629 4.265 46.4629C5.425 46.4629 6.39 46.8329 7.16 47.5729C7.92 48.3029 8.3 49.2029 8.3 50.2729C8.3 51.3129 7.92 52.1879 7.16 52.8979ZM2.18 43.3025C2.71 43.8525 3.395 44.1275 4.235 44.1275C5.075 44.1275 5.765 43.8525 6.305 43.3025C6.835 42.7425 7.1 42.0625 7.1 41.2625C7.1 40.4625 6.835 39.7875 6.305 39.2375C5.765 38.6775 5.075 38.3975 4.235 38.3975C3.395 38.3975 2.71 38.6775 2.18 39.2375C1.64 39.7875 1.37 40.4625 1.37 41.2625C1.37 42.0625 1.64 42.7425 2.18 43.3025ZM7.13 44.1575C6.37 44.9375 5.405 45.3275 4.235 45.3275C3.065 45.3275 2.1 44.9375 1.34 44.1575C0.579999 43.3675 0.199999 42.4025 0.199999 41.2625C0.199999 40.1225 0.579999 39.1625 1.34 38.3825C2.1 37.5925 3.065 37.1975 4.235 37.1975C5.405 37.1975 6.37 37.5925 7.13 38.3825C7.89 39.1625 8.27 40.1225 8.27 41.2625C8.27 42.4025 7.89 43.3675 7.13 44.1575ZM6.86 36.19V27.985H9.74V29.185H8V34.99H9.74V36.19H6.86ZM6.86 35.83C6.87 35.36 6.725 35 6.425 34.75C6.115 34.49 5.73 34.36 5.27 34.36H0.5V29.035H8V30.235H1.67V33.16H5.48C6.1 33.16 6.64 33.395 7.1 33.865C7.55 34.335 7.775 34.94 7.775 35.68V36.115H6.86V35.83ZM4.535 22.1423L4.79 24.2873C4.92 25.2973 5.305 25.8023 5.945 25.8023C6.285 25.8023 6.56 25.6623 6.77 25.3823C6.97 25.1023 7.07 24.7273 7.07 24.2573C7.07 23.6173 6.88 23.1073 6.5 22.7273C6.12 22.3373 5.62 22.1423 5 22.1423V21.6173C5.91 21.6173 6.665 21.8973 7.265 22.4573C7.865 23.0173 8.165 23.7173 8.165 24.5573C8.165 25.2673 7.965 25.8573 7.565 26.3273C7.155 26.7873 6.63 27.0173 5.99 27.0173C5.38 27.0073 4.875 26.7873 4.475 26.3573C4.075 25.9173 3.83 25.3123 3.74 24.5423L3.47 22.1423H3.17C2.71 22.1423 2.31 22.3223 1.97 22.6823C1.63 23.0323 1.46 23.4623 1.46 23.9723C1.46 24.4323 1.585 24.8423 1.835 25.2023C2.085 25.5523 2.41 25.7723 2.81 25.8623L2.45 27.0023C1.82 26.8023 1.31 26.4323 0.92 25.8923C0.529999 25.3423 0.334999 24.7223 0.334999 24.0323C0.334999 23.1923 0.605 22.4673 1.145 21.8573C1.675 21.2473 2.31 20.9423 3.05 20.9423H8V22.1423H4.535ZM0.5 14.9269V13.7269H3.665V13.0369L0.5 10.4569V9.04691L4.25 12.1069L8 9.04691V10.4569L4.88 13.0369V13.7269H8V14.9269H4.835V15.5869L8 18.1969V19.6069L4.25 16.5169L0.5 19.6069V18.1969L3.62 15.5869V14.9269H0.5ZM3.68 1.38859C2.98 1.44859 2.415 1.73359 1.985 2.24359C1.555 2.75359 1.34 3.36859 1.34 4.08859C1.34 4.77859 1.555 5.37359 1.985 5.87359C2.405 6.36359 2.97 6.65359 3.68 6.74359V1.38859ZM4.775 6.74359C5.485 6.65359 6.055 6.35359 6.485 5.84359C6.915 5.33359 7.13 4.72859 7.13 4.02859C7.13 3.48859 7.005 2.99859 6.755 2.55859C6.495 2.11859 6.14 1.78859 5.69 1.56859L6.125 0.458593C6.785 0.788593 7.31 1.27359 7.7 1.91359C8.08 2.54359 8.27 3.24359 8.27 4.01359C8.27 5.13359 7.89 6.07859 7.13 6.84859C6.36 7.60859 5.395 7.98859 4.235 7.98859C3.075 7.98859 2.115 7.61359 1.355 6.86359C0.585 6.11359 0.199999 5.19359 0.199999 4.10359C0.199999 3.00359 0.574999 2.07359 1.325 1.31359C2.065 0.553594 3 0.173594 4.13 0.173594C4.31 0.173594 4.525 0.198593 4.775 0.248593V6.74359Z" fill="#A1503B"/>
</svg>
