<svg width="143" height="120" viewBox="0 0 143 120" fill="none" xmlns="http://www.w3.org/2000/svg">
<rect width="143" height="120" rx="20" fill="#DED1B4"/>
<rect x="6.25" y="8.25" width="129.5" height="104.5" rx="16.75" stroke="white" stroke-width="0.5"/>
<path d="M41.3416 74.568C40.8376 75.0627 40.5856 75.702 40.5856 76.486C40.5856 77.27 40.8376 77.914 41.3416 78.418C41.8456 78.9127 42.4616 79.16 43.1896 79.16C43.7123 79.16 44.1836 79.034 44.6036 78.782C45.0236 78.53 45.3456 78.1753 45.5696 77.718L46.5916 78.18C46.2836 78.8147 45.8263 79.3187 45.2196 79.692C44.6129 80.0653 43.9363 80.252 43.1896 80.252C42.1443 80.252 41.2623 79.8973 40.5436 79.188C39.8249 78.4787 39.4656 77.578 39.4656 76.486C39.4656 75.394 39.8249 74.4933 40.5436 73.784C41.2623 73.0747 42.1443 72.72 43.1896 72.72C43.9456 72.72 44.6316 72.9113 45.2476 73.294C45.8636 73.6767 46.3209 74.1993 46.6196 74.862L45.5976 75.324C45.3829 74.848 45.0609 74.4793 44.6316 74.218C44.2023 73.9473 43.7216 73.812 43.1896 73.812C42.4616 73.812 41.8456 74.064 41.3416 74.568ZM47.9487 80V73H49.2647L52.0087 77.62L54.7527 73H56.0687V80H54.9487V74.624L52.4007 78.964H51.6307L49.0687 74.624V80H47.9487ZM59.3068 74.568C58.7934 75.0627 58.5368 75.702 58.5368 76.486C58.5368 77.27 58.7934 77.914 59.3068 78.418C59.8294 78.9127 60.4641 79.16 61.2108 79.16C61.9574 79.16 62.5874 78.9127 63.1008 78.418C63.6234 77.914 63.8848 77.27 63.8848 76.486C63.8848 75.702 63.6234 75.0627 63.1008 74.568C62.5874 74.064 61.9574 73.812 61.2108 73.812C60.4641 73.812 59.8294 74.064 59.3068 74.568ZM58.5088 79.188C57.7808 78.4787 57.4168 77.578 57.4168 76.486C57.4168 75.394 57.7808 74.4933 58.5088 73.784C59.2461 73.0747 60.1468 72.72 61.2108 72.72C62.2748 72.72 63.1708 73.0747 63.8988 73.784C64.6361 74.4933 65.0048 75.394 65.0048 76.486C65.0048 77.578 64.6361 78.4787 63.8988 79.188C63.1708 79.8973 62.2748 80.252 61.2108 80.252C60.1468 80.252 59.2461 79.8973 58.5088 79.188ZM71.8391 73V74.064H69.4591V80H68.3391V74.064H65.9591V73H71.8391ZM73.0776 73H74.1976V82.8H73.0776V73ZM74.9676 74.582C74.4543 75.086 74.1976 75.73 74.1976 76.514C74.1976 77.2887 74.4543 77.928 74.9676 78.432C75.4903 78.936 76.125 79.188 76.8716 79.188C77.6183 79.188 78.2483 78.936 78.7616 78.432C79.2843 77.928 79.5456 77.2887 79.5456 76.514C79.5456 75.73 79.2843 75.086 78.7616 74.582C78.2483 74.078 77.6183 73.826 76.8716 73.826C76.125 73.826 75.4903 74.078 74.9676 74.582ZM74.6596 79.216C73.997 78.4973 73.6656 77.5967 73.6656 76.514C73.6656 75.422 73.997 74.5213 74.6596 73.812C75.3223 73.1027 76.139 72.748 77.1096 72.748C78.1083 72.748 78.9483 73.1027 79.6296 73.812C80.3203 74.5213 80.6656 75.422 80.6656 76.514C80.6656 77.5967 80.3203 78.4973 79.6296 79.216C78.9483 79.9253 78.1083 80.28 77.1096 80.28C76.139 80.28 75.3223 79.9253 74.6596 79.216ZM87.8854 75.968C87.8294 75.3147 87.5634 74.7873 87.0874 74.386C86.6114 73.9847 86.0374 73.784 85.3654 73.784C84.7214 73.784 84.166 73.9847 83.6994 74.386C83.242 74.778 82.9714 75.3053 82.8874 75.968H87.8854ZM82.8874 76.99C82.9714 77.6527 83.2514 78.1847 83.7274 78.586C84.2034 78.9873 84.768 79.188 85.4214 79.188C85.9254 79.188 86.3827 79.0713 86.7934 78.838C87.204 78.5953 87.512 78.264 87.7174 77.844L88.7534 78.25C88.4454 78.866 87.9927 79.356 87.3954 79.72C86.8074 80.0747 86.154 80.252 85.4354 80.252C84.39 80.252 83.508 79.8973 82.7894 79.188C82.08 78.4693 81.7254 77.5687 81.7254 76.486C81.7254 75.4033 82.0754 74.5073 82.7754 73.798C83.4754 73.0793 84.334 72.72 85.3514 72.72C86.378 72.72 87.246 73.07 87.9554 73.77C88.6647 74.4607 89.0194 75.3333 89.0194 76.388C89.0194 76.556 88.996 76.7567 88.9494 76.99H82.8874ZM95.8332 73V74.064H93.4532V80H92.3332V74.064H89.9532V73H95.8332ZM101.188 76.864H98.1918V78.908H101.188C101.542 78.908 101.836 78.8147 102.07 78.628C102.303 78.432 102.42 78.194 102.42 77.914C102.42 77.6153 102.303 77.368 102.07 77.172C101.836 76.9667 101.542 76.864 101.188 76.864ZM101.328 75.8C101.953 75.8 102.476 76.0053 102.896 76.416C103.325 76.8267 103.54 77.3307 103.54 77.928C103.54 78.516 103.325 79.0107 102.896 79.412C102.476 79.804 101.953 80 101.328 80H97.0718V73H98.1918V75.8H101.328ZM55.6835 88.022H52.8695V89.996H55.8095C56.1268 89.996 56.3928 89.912 56.6075 89.744C56.8222 89.5667 56.9295 89.3473 56.9295 89.086C56.9295 88.778 56.8082 88.526 56.5655 88.33C56.3322 88.1247 56.0382 88.022 55.6835 88.022ZM55.8235 90.934H52.8695V92.978H55.8235C56.1782 92.978 56.4722 92.8847 56.7055 92.698C56.9482 92.502 57.0695 92.264 57.0695 91.984C57.0695 91.676 56.9482 91.424 56.7055 91.228C56.4722 91.032 56.1782 90.934 55.8235 90.934ZM55.9635 94H51.7495V87H55.8235C56.4582 87 56.9855 87.1867 57.4055 87.56C57.8348 87.924 58.0495 88.386 58.0495 88.946C58.0495 89.254 57.9655 89.5387 57.7975 89.8C57.6388 90.052 57.4148 90.248 57.1255 90.388C57.4522 90.5467 57.7088 90.7753 57.8955 91.074C58.0915 91.3727 58.1895 91.7087 58.1895 92.082C58.1895 92.6233 57.9748 93.0807 57.5455 93.454C57.1255 93.818 56.5982 94 55.9635 94ZM65.8151 94H64.6951V88.4L60.8451 94H59.5151V87H60.6351V92.46L64.4711 87H65.8151V94ZM67.0251 92.936H74.6831V95.624H73.5631V94H68.1451V95.624H67.0251V92.936ZM67.3611 92.936C67.7998 92.9453 68.1358 92.81 68.3691 92.53C68.6118 92.2407 68.7331 91.8813 68.7331 91.452V87H73.7031V94H72.5831V88.092H69.8531V91.648C69.8531 92.2267 69.6338 92.7307 69.1951 93.16C68.7565 93.58 68.1918 93.79 67.5011 93.79H67.0951V92.936H67.3611ZM81.7604 89.968C81.7044 89.3147 81.4384 88.7873 80.9624 88.386C80.4864 87.9847 79.9124 87.784 79.2404 87.784C78.5964 87.784 78.041 87.9847 77.5744 88.386C77.117 88.778 76.8464 89.3053 76.7624 89.968H81.7604ZM76.7624 90.99C76.8464 91.6527 77.1264 92.1847 77.6024 92.586C78.0784 92.9873 78.643 93.188 79.2964 93.188C79.8004 93.188 80.2577 93.0713 80.6684 92.838C81.079 92.5953 81.387 92.264 81.5924 91.844L82.6284 92.25C82.3204 92.866 81.8677 93.356 81.2704 93.72C80.6824 94.0747 80.029 94.252 79.3104 94.252C78.265 94.252 77.383 93.8973 76.6644 93.188C75.955 92.4693 75.6004 91.5687 75.6004 90.486C75.6004 89.4033 75.9504 88.5073 76.6504 87.798C77.3504 87.0793 78.209 86.72 79.2264 86.72C80.253 86.72 81.121 87.07 81.8304 87.77C82.5397 88.4607 82.8944 89.3333 82.8944 90.388C82.8944 90.556 82.871 90.7567 82.8244 90.99H76.7624ZM85.8302 88.568C85.3169 89.0627 85.0602 89.702 85.0602 90.486C85.0602 91.27 85.3169 91.914 85.8302 92.418C86.3529 92.9127 86.9875 93.16 87.7342 93.16C88.4809 93.16 89.1109 92.9127 89.6242 92.418C90.1469 91.914 90.4082 91.27 90.4082 90.486C90.4082 89.702 90.1469 89.0627 89.6242 88.568C89.1109 88.064 88.4809 87.812 87.7342 87.812C86.9875 87.812 86.3529 88.064 85.8302 88.568ZM85.0322 93.188C84.3042 92.4787 83.9402 91.578 83.9402 90.486C83.9402 89.394 84.3042 88.4933 85.0322 87.784C85.7695 87.0747 86.6702 86.72 87.7342 86.72C88.7982 86.72 89.6942 87.0747 90.4222 87.784C91.1595 88.4933 91.5282 89.394 91.5282 90.486C91.5282 91.578 91.1595 92.4787 90.4222 93.188C89.6942 93.8973 88.7982 94.252 87.7342 94.252C86.6702 94.252 85.7695 93.8973 85.0322 93.188Z" fill="#212121"/>
<path d="M78 43L60.75 52.5263V33.4737L78 43Z" fill="#212121"/>
<path d="M56.25 26.1125L85.5 43L56.25 59.8875V26.1125Z" stroke="#212121" stroke-width="0.5"/>
</svg>
