<svg width="217" height="124" viewBox="0 0 217 124" fill="none" xmlns="http://www.w3.org/2000/svg">
<rect width="217" height="124" rx="20" fill="#DED1B4"/>
<rect x="10.25" y="10.25" width="197.5" height="103.5" rx="19.75" stroke="white" stroke-width="0.5"/>
<path d="M108.58 53.18C108.04 53.71 107.77 54.395 107.77 55.235C107.77 56.075 108.04 56.765 108.58 57.305C109.12 57.835 109.78 58.1 110.56 58.1C111.12 58.1 111.625 57.965 112.075 57.695C112.525 57.425 112.87 57.045 113.11 56.555L114.205 57.05C113.875 57.73 113.385 58.27 112.735 58.67C112.085 59.07 111.36 59.27 110.56 59.27C109.44 59.27 108.495 58.89 107.725 58.13C106.955 57.37 106.57 56.405 106.57 55.235C106.57 54.065 106.955 53.1 107.725 52.34C108.495 51.58 109.44 51.2 110.56 51.2C111.37 51.2 112.105 51.405 112.765 51.815C113.425 52.225 113.915 52.785 114.235 53.495L113.14 53.99C112.91 53.48 112.565 53.085 112.105 52.805C111.645 52.515 111.13 52.37 110.56 52.37C109.78 52.37 109.12 52.64 108.58 53.18ZM115.659 59V51.5H117.069L120.009 56.45L122.949 51.5H124.359V59H123.159V53.24L120.429 57.89H119.604L116.859 53.24V59H115.659ZM127.828 53.18C127.278 53.71 127.003 54.395 127.003 55.235C127.003 56.075 127.278 56.765 127.828 57.305C128.388 57.835 129.068 58.1 129.868 58.1C130.668 58.1 131.343 57.835 131.893 57.305C132.453 56.765 132.733 56.075 132.733 55.235C132.733 54.395 132.453 53.71 131.893 53.18C131.343 52.64 130.668 52.37 129.868 52.37C129.068 52.37 128.388 52.64 127.828 53.18ZM126.973 58.13C126.193 57.37 125.803 56.405 125.803 55.235C125.803 54.065 126.193 53.1 126.973 52.34C127.763 51.58 128.728 51.2 129.868 51.2C131.008 51.2 131.968 51.58 132.748 52.34C133.538 53.1 133.933 54.065 133.933 55.235C133.933 56.405 133.538 57.37 132.748 58.13C131.968 58.89 131.008 59.27 129.868 59.27C128.728 59.27 127.763 58.89 126.973 58.13ZM141.256 51.5V52.64H138.706V59H137.506V52.64H134.956V51.5H141.256ZM142.583 51.5H143.783V62H142.583V51.5ZM144.608 53.195C144.058 53.735 143.783 54.425 143.783 55.265C143.783 56.095 144.058 56.78 144.608 57.32C145.168 57.86 145.848 58.13 146.648 58.13C147.448 58.13 148.123 57.86 148.673 57.32C149.233 56.78 149.513 56.095 149.513 55.265C149.513 54.425 149.233 53.735 148.673 53.195C148.123 52.655 147.448 52.385 146.648 52.385C145.848 52.385 145.168 52.655 144.608 53.195ZM144.278 58.16C143.568 57.39 143.213 56.425 143.213 55.265C143.213 54.095 143.568 53.13 144.278 52.37C144.988 51.61 145.863 51.23 146.903 51.23C147.973 51.23 148.873 51.61 149.603 52.37C150.343 53.13 150.713 54.095 150.713 55.265C150.713 56.425 150.343 57.39 149.603 58.16C148.873 58.92 147.973 59.3 146.903 59.3C145.863 59.3 144.988 58.92 144.278 58.16ZM158.448 54.68C158.388 53.98 158.103 53.415 157.593 52.985C157.083 52.555 156.468 52.34 155.748 52.34C155.058 52.34 154.463 52.555 153.963 52.985C153.473 53.405 153.183 53.97 153.093 54.68H158.448ZM153.093 55.775C153.183 56.485 153.483 57.055 153.993 57.485C154.503 57.915 155.108 58.13 155.808 58.13C156.348 58.13 156.838 58.005 157.278 57.755C157.718 57.495 158.048 57.14 158.268 56.69L159.378 57.125C159.048 57.785 158.563 58.31 157.923 58.7C157.293 59.08 156.593 59.27 155.823 59.27C154.703 59.27 153.758 58.89 152.988 58.13C152.228 57.36 151.848 56.395 151.848 55.235C151.848 54.075 152.223 53.115 152.973 52.355C153.723 51.585 154.643 51.2 155.733 51.2C156.833 51.2 157.763 51.575 158.523 52.325C159.283 53.065 159.663 54 159.663 55.13C159.663 55.31 159.638 55.525 159.588 55.775H153.093ZM166.964 51.5V52.64H164.414V59H163.214V52.64H160.664V51.5H166.964ZM172.701 55.64H169.491V57.83H172.701C173.081 57.83 173.396 57.73 173.646 57.53C173.896 57.32 174.021 57.065 174.021 56.765C174.021 56.445 173.896 56.18 173.646 55.97C173.396 55.75 173.081 55.64 172.701 55.64ZM172.851 54.5C173.521 54.5 174.081 54.72 174.531 55.16C174.991 55.6 175.221 56.14 175.221 56.78C175.221 57.41 174.991 57.94 174.531 58.37C174.081 58.79 173.521 59 172.851 59H168.291V51.5H169.491V54.5H172.851ZM111.085 69.595H108.07V71.71H111.22C111.56 71.71 111.845 71.62 112.075 71.44C112.305 71.25 112.42 71.015 112.42 70.735C112.42 70.405 112.29 70.135 112.03 69.925C111.78 69.705 111.465 69.595 111.085 69.595ZM111.235 72.715H108.07V74.905H111.235C111.615 74.905 111.93 74.805 112.18 74.605C112.44 74.395 112.57 74.14 112.57 73.84C112.57 73.51 112.44 73.24 112.18 73.03C111.93 72.82 111.615 72.715 111.235 72.715ZM111.385 76H106.87V68.5H111.235C111.915 68.5 112.48 68.7 112.93 69.1C113.39 69.49 113.62 69.985 113.62 70.585C113.62 70.915 113.53 71.22 113.35 71.5C113.18 71.77 112.94 71.98 112.63 72.13C112.98 72.3 113.255 72.545 113.455 72.865C113.665 73.185 113.77 73.545 113.77 73.945C113.77 74.525 113.54 75.015 113.08 75.415C112.63 75.805 112.065 76 111.385 76ZM121.94 76H120.74V70L116.615 76H115.19V68.5H116.39V74.35L120.5 68.5H121.94V76ZM123.237 74.86H131.442V77.74H130.242V76H124.437V77.74H123.237V74.86ZM123.597 74.86C124.067 74.87 124.427 74.725 124.677 74.425C124.937 74.115 125.067 73.73 125.067 73.27V68.5H130.392V76H129.192V69.67H126.267V73.48C126.267 74.1 126.032 74.64 125.562 75.1C125.092 75.55 124.487 75.775 123.747 75.775H123.312V74.86H123.597ZM139.024 71.68C138.964 70.98 138.679 70.415 138.169 69.985C137.659 69.555 137.044 69.34 136.324 69.34C135.634 69.34 135.039 69.555 134.539 69.985C134.049 70.405 133.759 70.97 133.669 71.68H139.024ZM133.669 72.775C133.759 73.485 134.059 74.055 134.569 74.485C135.079 74.915 135.684 75.13 136.384 75.13C136.924 75.13 137.414 75.005 137.854 74.755C138.294 74.495 138.624 74.14 138.844 73.69L139.954 74.125C139.624 74.785 139.139 75.31 138.499 75.7C137.869 76.08 137.169 76.27 136.399 76.27C135.279 76.27 134.334 75.89 133.564 75.13C132.804 74.36 132.424 73.395 132.424 72.235C132.424 71.075 132.799 70.115 133.549 69.355C134.299 68.585 135.219 68.2 136.309 68.2C137.409 68.2 138.339 68.575 139.099 69.325C139.859 70.065 140.239 71 140.239 72.13C140.239 72.31 140.214 72.525 140.164 72.775H133.669ZM143.385 70.18C142.835 70.71 142.56 71.395 142.56 72.235C142.56 73.075 142.835 73.765 143.385 74.305C143.945 74.835 144.625 75.1 145.425 75.1C146.225 75.1 146.9 74.835 147.45 74.305C148.01 73.765 148.29 73.075 148.29 72.235C148.29 71.395 148.01 70.71 147.45 70.18C146.9 69.64 146.225 69.37 145.425 69.37C144.625 69.37 143.945 69.64 143.385 70.18ZM142.53 75.13C141.75 74.37 141.36 73.405 141.36 72.235C141.36 71.065 141.75 70.1 142.53 69.34C143.32 68.58 144.285 68.2 145.425 68.2C146.565 68.2 147.525 68.58 148.305 69.34C149.095 70.1 149.49 71.065 149.49 72.235C149.49 73.405 149.095 74.37 148.305 75.13C147.525 75.89 146.565 76.27 145.425 76.27C144.285 76.27 143.32 75.89 142.53 75.13Z" fill="#212121"/>
<path d="M80 62.5L58.25 75.0574V49.9426L80 62.5Z" fill="#212121"/>
<path d="M53 40.8494L90.5 62.5L53 84.1506V40.8494Z" stroke="#212121" stroke-width="0.5"/>
</svg>
