<svg width="404" height="199" viewBox="0 0 404 199" fill="none" xmlns="http://www.w3.org/2000/svg">
<path d="M120.181 104.44C114.461 110.744 98.1236 123.161 69.9576 123.161H25.8711L115.53 0H14.8842L7.52562 23.8204L10.2284 25.2088L20.0999 24.621C28.8793 16.3184 32.9797 3.78109 56.7075 3.78109H89.983L0.523438 128.992H118.64L123.693 105.343L120.824 103.695L120.176 104.436L120.181 104.44ZM213.338 2.92953C177.841 -7.65474 140.192 11.3525 129.414 45.299C118.64 79.2409 138.781 115.478 174.25 126.067C209.719 136.651 247.386 117.644 258.16 83.6976C268.939 49.7512 248.849 13.5138 213.338 2.92953ZM193.683 122.934C179.623 122.934 167.576 116.857 158.834 105.445C150.596 94.7216 146.065 80.0832 146.116 64.3248C146.116 45.7664 152.526 28.9621 163.656 18.1927C167.635 14.2888 172.349 11.2148 177.526 9.14958C182.744 7.06403 188.319 6.01855 193.937 6.07196C198.261 6.05866 202.564 6.67287 206.711 7.89539C229.689 14.7356 241.555 39.7685 241.537 64.5145C241.49 93.5785 225.015 122.976 193.683 122.934ZM384.061 83.7393C378.368 105.264 363.008 122.939 338.679 122.939C324.628 122.939 312.577 116.857 303.83 105.445C295.592 94.7216 291.061 80.0832 291.117 64.3248C291.1 56.99 292.16 49.6924 294.264 42.6657H401.893C398.231 33.1947 392.414 24.7065 384.903 17.8734C377.295 10.9509 368.218 5.84174 358.352 2.92953C322.855 -7.65474 285.216 11.3525 274.442 45.299C263.658 79.2409 283.804 115.478 319.264 126.067C354.724 136.651 392.368 117.658 403.17 83.7393H384.061ZM338.942 6.07196C343.266 6.05787 347.569 6.6721 351.716 7.89539C365.373 11.9727 375.087 22.5107 380.733 35.5802H296.837C299.598 29.0518 303.616 23.1299 308.661 18.1511C312.642 14.2555 317.356 11.1895 322.531 9.13107C327.748 7.05473 333.319 6.01714 338.933 6.07658L338.942 6.07196ZM75.7842 188.879H78.7647L81.6479 182.182C82.0135 181.349 82.4624 180.719 82.99 180.303C83.5072 179.89 84.1257 179.623 84.7811 179.53V179.336C84.1349 179.152 83.5395 178.823 83.0409 178.373C82.4855 177.841 82.0445 177.202 81.7451 176.494L79.1118 170.76H76.1313V167.386H78.4685C79.382 167.364 80.2813 167.615 81.0509 168.108C81.8145 168.594 82.4439 169.362 82.9438 170.422L86.3685 177.794H90.9456V167.386H94.9257V177.799H99.4982L102.923 170.422C103.423 169.362 104.034 168.594 104.765 168.108C105.528 167.627 106.408 167.386 107.403 167.386H109.735V170.764H106.755L104.117 176.494C103.819 177.202 103.38 177.841 102.826 178.373C102.327 178.823 101.732 179.152 101.086 179.336V179.53C101.741 179.623 102.359 179.89 102.877 180.303C103.409 180.719 103.853 181.344 104.219 182.182L107.102 188.879H110.087V192.252H107.25C106.391 192.262 105.547 192.027 104.816 191.577C104.085 191.095 103.441 190.198 102.877 188.879L99.4982 181.071H94.9211V192.252H90.9456V181.071H86.3731L82.9947 188.879C82.43 190.198 81.7821 191.095 81.0509 191.577C80.3195 192.027 79.4755 192.261 78.6166 192.252H75.7842V188.879ZM116.275 167.386H120.153V181.168L119.755 187.143H119.954L123.138 181.844L133.375 167.386H137.055V192.252H133.176V178.47L133.574 172.495H133.375L130.196 177.794L119.954 192.252H116.275V167.386ZM141.678 188.879H145.056C145.487 188.3 145.866 187.61 146.199 186.805C146.569 185.871 146.851 184.904 147.042 183.917C147.273 182.793 147.458 181.46 147.592 179.914C147.722 178.373 147.787 176.559 147.787 174.472V167.391H165.142V192.252H161.162V170.76H151.568V174.569C151.568 176.975 151.466 179.081 151.267 180.881C151.105 182.677 150.851 184.218 150.527 185.509C150.291 186.608 149.923 187.674 149.43 188.684C149.068 189.395 148.6 190.046 148.041 190.614C147.451 191.2 146.736 191.644 145.95 191.915C145.06 192.156 144.141 192.27 143.219 192.252H141.673L141.678 188.879ZM183.307 192.831C181.581 192.831 180.007 192.525 178.586 191.915C177.185 191.323 175.929 190.436 174.902 189.314C173.878 188.104 173.085 186.715 172.565 185.218C171.982 183.48 171.697 181.655 171.723 179.822C171.723 177.859 172.001 176.073 172.57 174.472C173.13 172.866 173.912 171.5 174.902 170.376C175.93 169.219 177.156 168.335 178.582 167.724C180.076 167.1 181.683 166.788 183.302 166.808C185.029 166.808 186.588 167.113 187.977 167.724C189.402 168.335 190.628 169.219 191.656 170.376C192.683 171.5 193.479 172.866 194.044 174.472C194.609 176.077 194.891 177.859 194.891 179.822C194.891 181.812 194.609 183.612 194.044 185.218C193.479 186.791 192.683 188.157 191.656 189.314C190.628 190.438 189.402 191.304 187.977 191.915C186.588 192.525 185.033 192.831 183.307 192.831ZM183.307 189.406C185.459 189.406 187.218 188.767 188.574 187.481C189.934 186.194 190.61 184.237 190.61 181.603V178.04C190.61 175.402 189.934 173.444 188.574 172.158C187.218 170.871 185.459 170.232 183.307 170.232C181.15 170.232 179.396 170.871 178.036 172.158C176.675 173.444 175.999 175.402 175.999 178.035V181.599C175.999 184.237 176.68 186.194 178.036 187.481C179.396 188.767 181.15 189.406 183.307 189.406ZM201.426 167.386H205.308V181.168L204.91 187.143H205.109L208.289 181.844L218.531 167.386H222.21V192.252H218.332V178.47L218.73 172.495H218.531L215.351 177.794L205.109 192.252H201.43L201.426 167.386ZM211.917 163.531C210.131 163.531 208.705 163.193 207.646 162.522C206.592 161.823 205.722 160.88 205.109 159.773L204.114 157.94L207.595 156.45L209.335 160.398C209.733 160.495 210.163 160.578 210.631 160.643C211.49 160.703 212.353 160.703 213.213 160.643C213.676 160.578 214.106 160.495 214.504 160.398L216.244 156.45L219.725 157.94L218.73 159.773C218.118 160.88 217.248 161.823 216.194 162.522C215.134 163.193 213.708 163.531 211.917 163.531ZM238.575 188.879H241.509C242.536 187.273 243.365 185.269 243.994 182.857C244.623 180.446 244.938 177.683 244.938 174.569V167.386H262.293V188.879H266.565V199H262.937V192.248H242.203V198.995H238.575V188.879ZM258.313 188.879V170.76H248.719V174.758C248.719 178.067 248.418 180.895 247.821 183.242C247.261 185.556 246.581 187.435 245.785 188.879H258.313ZM281.763 192.831C280.037 192.831 278.464 192.525 277.043 191.915C275.642 191.323 274.385 190.436 273.359 189.314C272.334 188.104 271.542 186.715 271.022 185.218C270.438 183.479 270.153 181.655 270.179 179.822C270.179 177.859 270.457 176.073 271.022 174.472C271.586 172.866 272.364 171.5 273.359 170.376C274.386 169.219 275.613 168.335 277.038 167.724C278.533 167.1 280.139 166.788 281.759 166.808C283.485 166.808 285.045 167.113 286.433 167.724C287.858 168.335 289.085 169.219 290.112 170.376C291.14 171.5 291.936 172.866 292.5 174.472C293.065 176.077 293.343 177.859 293.343 179.822C293.343 181.812 293.065 183.612 292.5 185.218C291.936 186.791 291.14 188.157 290.112 189.314C289.085 190.438 287.858 191.304 286.433 191.915C285.045 192.525 283.49 192.831 281.763 192.831ZM281.763 189.406C283.915 189.406 285.674 188.767 287.03 187.481C288.391 186.194 289.066 184.237 289.066 181.603V178.04C289.066 175.402 288.391 173.444 287.03 172.158C285.674 170.871 283.915 170.232 281.763 170.232C279.607 170.232 277.853 170.871 276.487 172.158C275.131 173.444 274.451 175.402 274.451 178.035V181.599C274.451 184.237 275.131 186.194 276.487 187.481C277.853 188.767 279.607 189.406 281.763 189.406ZM299.887 167.386H305.107L312.91 180.298H313.109L320.865 167.386H326.035V192.252H322.157V172.014H321.907L320.467 174.712L312.961 187.046L305.454 174.712L304.01 172.014H303.765V192.252H299.887V167.386Z" fill="white"/>
</svg>
