<svg width="13" height="130" viewBox="0 0 13 130" fill="none" xmlns="http://www.w3.org/2000/svg">
<path d="M2.792 127.248C3.35733 127.824 4.088 128.112 4.984 128.112C5.88 128.112 6.616 127.824 7.192 127.248C7.75733 126.672 8.04 125.968 8.04 125.136C8.04 124.539 7.896 124 7.608 123.52C7.32 123.04 6.91467 122.672 6.392 122.416L6.92 121.248C7.64533 121.6 8.22133 122.123 8.648 122.816C9.07467 123.509 9.288 124.283 9.288 125.136C9.288 126.331 8.88267 127.339 8.072 128.16C7.26133 128.981 6.232 129.392 4.984 129.392C3.736 129.392 2.70667 128.981 1.896 128.16C1.08533 127.339 0.679999 126.331 0.679999 125.136C0.679999 124.272 0.898666 123.488 1.336 122.784C1.77333 122.08 2.37067 121.557 3.128 121.216L3.656 122.384C3.112 122.629 2.69067 122.997 2.392 123.488C2.08267 123.979 1.928 124.528 1.928 125.136C1.928 125.968 2.216 126.672 2.792 127.248ZM2.792 117.857C3.35733 118.444 4.088 118.737 4.984 118.737C5.88 118.737 6.616 118.444 7.192 117.857C7.75733 117.26 8.04 116.534 8.04 115.681C8.04 114.828 7.75733 114.108 7.192 113.521C6.616 112.924 5.88 112.625 4.984 112.625C4.088 112.625 3.35733 112.924 2.792 113.521C2.216 114.108 1.928 114.828 1.928 115.681C1.928 116.534 2.216 117.26 2.792 117.857ZM8.072 118.769C7.26133 119.601 6.232 120.017 4.984 120.017C3.736 120.017 2.70667 119.601 1.896 118.769C1.08533 117.926 0.679999 116.897 0.679999 115.681C0.679999 114.465 1.08533 113.441 1.896 112.609C2.70667 111.766 3.736 111.345 4.984 111.345C6.232 111.345 7.26133 111.766 8.072 112.609C8.88267 113.441 9.288 114.465 9.288 115.681C9.288 116.897 8.88267 117.926 8.072 118.769ZM9 109.806H1V108.526H7.784V103.822H1V102.542H7.784V101.55H10.856V102.83H9V109.806ZM2.792 98.3261C3.35733 98.9021 4.088 99.1901 4.984 99.1901C5.88 99.1901 6.616 98.9021 7.192 98.3261C7.75733 97.7501 8.04 97.0461 8.04 96.2141C8.04 95.6168 7.896 95.0781 7.608 94.5981C7.32 94.1181 6.91467 93.7501 6.392 93.4941L6.92 92.3261C7.64533 92.6781 8.22133 93.2008 8.648 93.8941C9.07467 94.5875 9.288 95.3608 9.288 96.2141C9.288 97.4088 8.88267 98.4168 8.072 99.2381C7.26133 100.059 6.232 100.47 4.984 100.47C3.736 100.47 2.70667 100.059 1.896 99.2381C1.08533 98.4168 0.679999 97.4088 0.679999 96.2141C0.679999 95.3501 0.898666 94.5661 1.336 93.8621C1.77333 93.1581 2.37067 92.6355 3.128 92.2941L3.656 93.4621C3.112 93.7075 2.69067 94.0755 2.392 94.5661C2.08267 95.0568 1.928 95.6061 1.928 96.2141C1.928 97.0461 2.216 97.7501 2.792 98.3261ZM4.392 84.0551C3.64533 84.1191 3.04267 84.4231 2.584 84.9671C2.12533 85.5111 1.896 86.1671 1.896 86.9351C1.896 87.6711 2.12533 88.3058 2.584 88.8391C3.032 89.3618 3.63467 89.6711 4.392 89.7671L4.392 84.0551ZM5.56 89.7671C6.31733 89.6711 6.92533 89.3511 7.384 88.8071C7.84267 88.2631 8.072 87.6178 8.072 86.8711C8.072 86.2951 7.93867 85.7725 7.672 85.3031C7.39467 84.8338 7.016 84.4818 6.536 84.2471L7 83.0631C7.704 83.4151 8.264 83.9325 8.68 84.6151C9.08533 85.2871 9.288 86.0338 9.288 86.8551C9.288 88.0498 8.88267 89.0578 8.072 89.8791C7.25067 90.6898 6.22133 91.0951 4.984 91.0951C3.74667 91.0951 2.72267 90.6951 1.912 89.8951C1.09067 89.0951 0.679999 88.1138 0.679999 86.9511C0.679999 85.7778 1.08 84.7858 1.88 83.9751C2.66933 83.1645 3.66667 82.7591 4.872 82.7591C5.064 82.7591 5.29333 82.7858 5.56 82.8391V89.7671ZM1 74.9719H2.216V77.6919H9V78.9719H2.216V81.6919H1V74.9719ZM9 66.3564V67.6364H2.6L9 72.0364V73.5564H1V72.2764H7.24L1 67.8924V66.3564H9ZM1 53.317H9V54.597H2.216L2.216 58.917H9V60.197H1L1 53.317ZM1 51.4782V50.1982H12.2V51.4782H1ZM2.808 49.3182C3.384 49.9049 4.12 50.1982 5.016 50.1982C5.90133 50.1982 6.632 49.9049 7.208 49.3182C7.784 48.7209 8.072 47.9956 8.072 47.1422C8.072 46.2889 7.784 45.5689 7.208 44.9822C6.632 44.3849 5.90133 44.0862 5.016 44.0862C4.12 44.0862 3.384 44.3849 2.808 44.9822C2.232 45.5689 1.944 46.2889 1.944 47.1422C1.944 47.9956 2.232 48.7209 2.808 49.3182ZM8.104 49.6702C7.28267 50.4276 6.25333 50.8062 5.016 50.8062C3.768 50.8062 2.73867 50.4276 1.928 49.6702C1.11733 48.9129 0.712 47.9796 0.712 46.8702C0.712 45.7289 1.11733 44.7689 1.928 43.9902C2.73867 43.2009 3.768 42.8062 5.016 42.8062C6.25333 42.8062 7.28267 43.2009 8.104 43.9902C8.91467 44.7689 9.32 45.7289 9.32 46.8702C9.32 47.9796 8.91467 48.9129 8.104 49.6702ZM2.792 39.4351C3.35733 40.0218 4.088 40.3151 4.984 40.3151C5.88 40.3151 6.616 40.0218 7.192 39.4351C7.75733 38.8378 8.04 38.1125 8.04 37.2591C8.04 36.4058 7.75733 35.6858 7.192 35.0991C6.616 34.5018 5.88 34.2031 4.984 34.2031C4.088 34.2031 3.35733 34.5018 2.792 35.0991C2.216 35.6858 1.928 36.4058 1.928 37.2591C1.928 38.1125 2.216 38.8378 2.792 39.4351ZM8.072 40.3471C7.26133 41.1791 6.232 41.5951 4.984 41.5951C3.736 41.5951 2.70667 41.1791 1.896 40.3471C1.08533 39.5045 0.679999 38.4751 0.679999 37.2591C0.679999 36.0431 1.08533 35.0191 1.896 34.1871C2.70667 33.3445 3.736 32.9231 4.984 32.9231C6.232 32.9231 7.26133 33.3445 8.072 34.1871C8.88267 35.0191 9.288 36.0431 9.288 37.2591C9.288 38.4751 8.88267 39.5045 8.072 40.3471ZM4.392 24.6645C3.64533 24.7285 3.04267 25.0325 2.584 25.5765C2.12533 26.1205 1.896 26.7765 1.896 27.5445C1.896 28.2805 2.12533 28.9152 2.584 29.4485C3.032 29.9712 3.63467 30.2805 4.392 30.3765L4.392 24.6645ZM5.56 30.3765C6.31733 30.2805 6.92533 29.9605 7.384 29.4165C7.84267 28.8725 8.072 28.2272 8.072 27.4805C8.072 26.9045 7.93867 26.3818 7.672 25.9125C7.39467 25.4432 7.016 25.0912 6.536 24.8565L7 23.6725C7.704 24.0245 8.264 24.5418 8.68 25.2245C9.08533 25.8965 9.288 26.6432 9.288 27.4645C9.288 28.6592 8.88267 29.6672 8.072 30.4885C7.25067 31.2992 6.22133 31.7045 4.984 31.7045C3.74667 31.7045 2.72267 31.3045 1.912 30.5045C1.09067 29.7045 0.679999 28.7232 0.679999 27.5605C0.679999 26.3872 1.08 25.3952 1.88 24.5845C2.66933 23.7738 3.66667 23.3685 4.872 23.3685C5.064 23.3685 5.29333 23.3952 5.56 23.4485V30.3765ZM9 21.8532H1V20.5732H4.36V20.1572L1 16.8932V15.2292L5 19.0372L9 15.2292V16.8932L5.688 20.1572V20.5732H9V21.8532ZM1 7.56562H2.216V10.2856H9V11.5656H2.216V14.2856H1V7.56562ZM5.304 1.28612L5.576 3.57412C5.71467 4.65146 6.12533 5.19012 6.808 5.19012C7.17067 5.19012 7.464 5.04079 7.688 4.74212C7.90133 4.44346 8.008 4.04346 8.008 3.54212C8.008 2.85946 7.80533 2.31546 7.4 1.91012C6.99467 1.49412 6.46133 1.28612 5.8 1.28612V0.726125C6.77067 0.726125 7.576 1.02479 8.216 1.62212C8.856 2.21946 9.176 2.96612 9.176 3.86212C9.176 4.61946 8.96267 5.24879 8.536 5.75012C8.09867 6.24079 7.53867 6.48612 6.856 6.48612C6.20533 6.47546 5.66667 6.24079 5.24 5.78212C4.81333 5.31279 4.552 4.66746 4.456 3.84612L4.168 1.28612H3.848C3.35733 1.28612 2.93067 1.47812 2.568 1.86212C2.20533 2.23546 2.024 2.69412 2.024 3.23812C2.024 3.72879 2.15733 4.16612 2.424 4.55012C2.69067 4.92346 3.03733 5.15812 3.464 5.25412L3.08 6.47012C2.408 6.25679 1.864 5.86212 1.448 5.28612C1.032 4.69946 0.823999 4.03812 0.823999 3.30212C0.823999 2.40612 1.112 1.63279 1.688 0.982125C2.25333 0.331458 2.93067 0.0061245 3.72 0.0061245H9V1.28612H5.304Z" fill="#212121"/>
</svg>
