<svg width="118" height="58" viewBox="0 0 118 58" fill="none" xmlns="http://www.w3.org/2000/svg">
<path d="M34.875 30.4399C33.2078 32.2771 28.4463 35.8961 20.2371 35.8961H7.38775L33.5194 0H4.18554L2.04084 6.94263L2.82858 7.34729L5.70571 7.17598C8.26452 4.75611 9.45962 1.10203 16.3753 1.10203H26.0736L0 37.5957H34.4258L35.8988 30.7029L35.0625 30.2227L34.8737 30.4386L34.875 30.4399ZM62.0264 0.853834C51.6806 -2.23103 40.7075 3.30877 37.566 13.2027C34.4258 23.0953 40.2961 33.657 50.6338 36.7432C60.9716 39.828 71.95 34.2882 75.0902 24.3943C78.2317 14.5003 72.3763 3.9387 62.0264 0.853834ZM56.2977 35.83C52.1999 35.83 48.6888 34.0589 46.1408 30.7326C43.7398 27.6073 42.4192 23.3408 42.4341 18.7479C42.4341 13.339 44.3022 8.44122 47.5463 5.3024C48.7058 4.16457 50.0799 3.26864 51.5888 2.66671C53.1095 2.05886 54.7343 1.75415 56.3719 1.76972C57.6321 1.76584 58.8861 1.94486 60.0948 2.30117C66.7919 4.2948 70.2504 11.5908 70.245 18.8032C70.2315 27.2741 65.4296 35.8421 56.2977 35.83ZM111.785 24.4064C110.126 30.68 105.649 35.8313 98.5578 35.8313C94.4626 35.8313 90.9502 34.0589 88.4008 30.7326C85.9998 27.6073 84.6793 23.3408 84.6955 18.7479C84.6906 16.6101 84.9996 14.4832 85.6127 12.4352H116.982C115.915 9.67484 114.219 7.20088 112.03 5.20933C109.813 3.19171 107.167 1.70262 104.292 0.853834C93.946 -2.23103 82.9757 3.30877 79.8355 13.2027C76.6926 23.0953 82.5643 33.657 92.8993 36.7432C103.234 39.828 114.206 34.2923 117.354 24.4064H111.785ZM98.6347 1.76972C99.8948 1.76561 101.149 1.94463 102.358 2.30117C106.338 3.48952 109.169 6.5609 110.815 10.3701H86.3627C87.1675 8.46737 88.3385 6.74138 89.809 5.29026C90.9692 4.15488 92.3433 3.26127 93.8516 2.66132C95.3719 2.05615 96.9958 1.75374 98.632 1.77106L98.6347 1.76972ZM21.9353 55.05H22.804L23.6443 53.0982C23.7509 52.8554 23.8817 52.672 24.0355 52.5506C24.1862 52.4302 24.3665 52.3524 24.5575 52.3253V52.2687C24.3692 52.2153 24.1956 52.1193 24.0503 51.9881C23.8884 51.8332 23.7599 51.6468 23.6726 51.4405L22.9051 49.7692H22.0365V48.7859H22.7176C22.9839 48.7794 23.246 48.8527 23.4703 48.9963C23.6929 49.1379 23.8763 49.3618 24.022 49.6707L25.0202 51.8195H26.3542V48.7859H27.5142V51.8208H28.8469L29.8451 49.6707C29.9907 49.3618 30.1688 49.1379 30.3819 48.9963C30.6045 48.856 30.8608 48.7859 31.1508 48.7859H31.8306V49.7706H30.9619L30.1931 51.4405C30.1062 51.6467 29.9781 51.8331 29.8167 51.9881C29.6714 52.1193 29.4979 52.2153 29.3096 52.2687V52.3253C29.5006 52.3524 29.6808 52.4302 29.8316 52.5506C29.9867 52.672 30.1162 52.8541 30.2228 53.0982L31.0631 55.05H31.9331V56.0334H31.1063C30.8559 56.0361 30.6099 55.9678 30.3968 55.8364C30.1836 55.6961 29.9961 55.4345 29.8316 55.05L28.8469 52.7745H27.5129V56.0334H26.3542V52.7745H25.0215L24.0368 55.05C23.8723 55.4345 23.6834 55.6961 23.4703 55.8364C23.2571 55.9677 23.0112 56.036 22.7608 56.0334H21.9353V55.05ZM33.7366 48.7859H34.8669V52.8028L34.7509 54.5442H34.8089L35.7369 52.9997L38.7206 48.7859H39.793V56.0334H38.6626V52.0164L38.7786 50.275H38.7206L37.794 51.8195L34.8089 56.0334H33.7366V48.7859ZM41.1405 55.05H42.1252C42.2506 54.8814 42.3612 54.6804 42.4583 54.4457C42.566 54.1734 42.6482 53.8916 42.7038 53.604C42.7713 53.2763 42.8252 52.8878 42.8643 52.4373C42.9021 51.9881 42.921 51.4593 42.921 50.851V48.7872H47.9793V56.0334H46.8192V49.7692H44.023V50.8793C44.023 51.5807 43.9934 52.1945 43.9353 52.7192C43.8881 53.2425 43.814 53.6917 43.7195 54.0681C43.651 54.3883 43.5436 54.6991 43.3998 54.9934C43.2945 55.2005 43.1581 55.3902 42.9952 55.5559C42.8231 55.7265 42.6147 55.8561 42.3855 55.9349C42.1262 56.0052 41.8583 56.0384 41.5897 56.0334H41.1391L41.1405 55.05ZM53.2736 56.202C52.7704 56.202 52.3118 56.1129 51.8977 55.9349C51.4894 55.7626 51.1231 55.504 50.824 55.1768C50.5253 54.8243 50.2944 54.4196 50.1428 53.9831C49.9727 53.4764 49.8897 52.9447 49.8974 52.4103C49.8974 51.8384 49.9783 51.3177 50.1442 50.851C50.3074 50.3829 50.5354 49.985 50.824 49.6572C51.1235 49.32 51.4809 49.0624 51.8964 48.8843C52.332 48.7024 52.8002 48.6115 53.2722 48.6173C53.7753 48.6173 54.2299 48.7063 54.6346 48.8843C55.05 49.0624 55.4075 49.32 55.7069 49.6572C56.0064 49.985 56.2384 50.3829 56.4029 50.851C56.5675 51.3191 56.6498 51.8384 56.6498 52.4103C56.6498 52.9903 56.5675 53.515 56.4029 53.9831C56.2384 54.4417 56.0064 54.8396 55.7069 55.1768C55.4075 55.5046 55.05 55.7568 54.6346 55.9349C54.2299 56.1129 53.7767 56.202 53.2736 56.202ZM53.2736 55.2038C53.9008 55.2038 54.4134 55.0177 54.8086 54.6427C55.2052 54.2677 55.4021 53.6971 55.4021 52.9296V51.891C55.4021 51.1221 55.2052 50.5516 54.8086 50.1766C54.4134 49.8016 53.9008 49.6154 53.2736 49.6154C52.645 49.6154 52.1338 49.8016 51.7372 50.1766C51.3406 50.5516 51.1437 51.1221 51.1437 51.8896V52.9283C51.1437 53.6971 51.342 54.2677 51.7372 54.6427C52.1338 55.0177 52.645 55.2038 53.2736 55.2038ZM58.5544 48.7859H59.6861V52.8028L59.5701 54.5442H59.6281L60.5548 52.9997L63.5398 48.7859H64.6122V56.0334H63.4818V52.0164L63.5978 50.275H63.5398L62.6131 51.8195L59.6281 56.0334H58.5557L58.5544 48.7859ZM61.6123 47.6623C61.0916 47.6623 60.6762 47.5638 60.3673 47.3682C60.0601 47.1644 59.8065 46.8896 59.6281 46.567L59.3381 46.0328L60.3524 45.5985L60.8596 46.7491C60.9756 46.7774 61.1011 46.8017 61.2373 46.8206C61.4879 46.838 61.7394 46.838 61.99 46.8206C62.1248 46.8017 62.2503 46.7774 62.3663 46.7491L62.8735 45.5985L63.8878 46.0328L63.5978 46.567C63.4194 46.8896 63.1659 47.1644 62.8586 47.3682C62.5497 47.5638 62.1343 47.6623 61.6123 47.6623ZM69.3818 55.05H70.2369C70.5364 54.582 70.7778 53.9979 70.9613 53.2952C71.1447 52.5924 71.2365 51.7871 71.2365 50.8793V48.7859H76.2947V55.05H77.5397V58H76.4822V56.032H70.4393V57.9987H69.3818V55.05ZM75.1347 55.05V49.7692H72.3385V50.9346C72.3385 51.8991 72.2508 52.7232 72.0768 53.4071C71.9136 54.0815 71.7153 54.6292 71.4833 55.05H75.1347ZM81.9694 56.202C81.4663 56.202 81.0077 56.1129 80.5936 55.9349C80.1852 55.7626 79.8189 55.504 79.5199 55.1768C79.2212 54.8243 78.9903 54.4196 78.8387 53.9831C78.6686 53.4764 78.5856 52.9447 78.5932 52.4103C78.5932 51.8384 78.6741 51.3177 78.8387 50.851C79.0032 50.3829 79.2299 49.985 79.5199 49.6572C79.8193 49.32 80.1768 49.0624 80.5922 48.8843C81.0278 48.7024 81.496 48.6115 81.9681 48.6173C82.4712 48.6173 82.9258 48.7063 83.3304 48.8843C83.7459 49.0624 84.1033 49.32 84.4028 49.6572C84.7022 49.985 84.9342 50.3829 85.0988 50.851C85.2633 51.3191 85.3443 51.8384 85.3443 52.4103C85.3443 52.9903 85.2633 53.515 85.0988 53.9831C84.9342 54.4417 84.7022 54.8396 84.4028 55.1768C84.1033 55.5046 83.7459 55.7568 83.3304 55.9349C82.9258 56.1129 82.4725 56.202 81.9694 56.202ZM81.9694 55.2038C82.5966 55.2038 83.1092 55.0177 83.5044 54.6427C83.901 54.2677 84.0979 53.6971 84.0979 52.9296V51.891C84.0979 51.1221 83.901 50.5516 83.5044 50.1766C83.1092 49.8016 82.5966 49.6154 81.9694 49.6154C81.3408 49.6154 80.8296 49.8016 80.4317 50.1766C80.0365 50.5516 79.8382 51.1221 79.8382 51.8896V52.9283C79.8382 53.6971 80.0365 54.2677 80.4317 54.6427C80.8296 55.0177 81.3408 55.2038 81.9694 55.2038ZM87.2516 48.7859H88.7731L91.0473 52.5492H91.1053L93.366 48.7859H94.8727V56.0334H93.7423V50.1347H93.6695L93.25 50.9211L91.0621 54.5159L88.8743 50.9211L88.4534 50.1347H88.3819V56.0334H87.2516V48.7859Z" fill="#212121"/>
</svg>
