<svg width="193" height="95" viewBox="0 0 193 95" fill="none" xmlns="http://www.w3.org/2000/svg">
<path d="M57.1228 49.8585C54.3921 52.8676 46.5931 58.7953 33.1469 58.7953H12.1006L54.9024 0H6.85563L3.34275 11.3715L4.63302 12.0343L9.34557 11.7538C13.5367 7.79018 15.4942 1.80504 26.8216 1.80504H42.7068L0 61.5791H56.3871L58.7997 50.2893L57.4299 49.5028L57.1206 49.8563L57.1228 49.8585ZM101.595 1.39852C84.6492 -3.65427 66.6761 5.41954 61.5305 21.6252C56.3871 37.8286 66.0022 55.1278 82.9347 60.1828C99.8672 65.2356 117.849 56.1618 122.993 39.9562C128.138 23.7505 118.547 6.45131 101.595 1.39852ZM92.2118 58.6871C85.4998 58.6871 79.7488 55.7862 75.5754 50.3379C71.6427 45.2188 69.4798 38.2307 69.5041 30.7078C69.5041 21.8483 72.564 13.8261 77.8775 8.68497C79.7767 6.82128 82.0275 5.3538 84.4989 4.36789C86.9897 3.37227 89.6511 2.87317 92.3333 2.89867C94.3973 2.89232 96.4513 3.18554 98.4311 3.76916C109.401 7.03458 115.065 18.985 115.057 30.7984C115.034 44.6731 107.169 58.7069 92.2118 58.6871ZM183.096 39.976C180.378 50.2518 173.045 58.6893 161.431 58.6893C154.723 58.6893 148.97 55.7862 144.794 50.3379C140.862 45.2188 138.699 38.2307 138.725 30.7078C138.717 27.2063 139.224 23.7225 140.228 20.368H191.608C189.86 15.8467 187.084 11.7945 183.498 8.53252C179.866 5.2278 175.532 2.78877 170.823 1.39852C153.877 -3.65427 135.908 5.41954 130.765 21.6252C125.617 37.8286 135.235 55.1278 152.163 60.1828C169.091 65.2356 187.062 56.1684 192.218 39.976H183.096ZM161.557 2.89867C163.621 2.89195 165.675 3.18517 167.655 3.76916C174.174 5.7156 178.812 10.7463 181.507 16.9855H141.456C142.774 13.869 144.692 11.0419 147.101 8.66508C149.001 6.80541 151.252 5.34174 153.722 4.35906C156.213 3.36784 158.872 2.87251 161.552 2.90088L161.557 2.89867ZM35.9285 90.1681H37.3513L38.7278 86.9712C38.9023 86.5735 39.1166 86.273 39.3685 86.0742C39.6154 85.877 39.9106 85.7496 40.2235 85.7052V85.6125C39.915 85.525 39.6308 85.3678 39.3928 85.1529C39.1276 84.8992 38.9171 84.5939 38.7742 84.2559L37.517 81.5185H36.0942V79.9079H37.2099C37.6461 79.8973 38.0754 80.0173 38.4428 80.2526C38.8073 80.4846 39.1078 80.8513 39.3464 81.3572L40.9813 84.8767H43.1664V79.9079H45.0664V84.879H47.2492L48.8842 81.3572C49.1228 80.8513 49.4144 80.4846 49.7635 80.2526C50.128 80.0228 50.5478 79.9079 51.0228 79.9079H52.1363V81.5207H50.7135L49.4542 84.2559C49.3119 84.5938 49.1021 84.899 48.8378 85.1529C48.5998 85.3678 48.3155 85.525 48.0071 85.6125V85.7052C48.3199 85.7496 48.6152 85.877 48.8621 86.0742C49.1161 86.273 49.3282 86.5713 49.5028 86.9712L50.8792 90.1681H52.3042V91.7788H50.9499C50.5398 91.7832 50.1369 91.6714 49.7878 91.4562C49.4387 91.2264 49.1316 90.7978 48.8621 90.1681L47.2492 86.441H45.0642V91.7788H43.1664V86.441H40.9835L39.3707 90.1681C39.1011 90.7978 38.7918 91.2264 38.4428 91.4562C38.0936 91.6713 37.6907 91.7831 37.2806 91.7788H35.9285V90.1681ZM55.2582 79.9079H57.1096V86.4874L56.9196 89.3396H57.0146L58.5346 86.8099L63.4217 79.9079H65.1781V91.7788H63.3267V85.1993L63.5167 82.347H63.4217L61.9039 84.8767L57.0146 91.7788H55.2582V79.9079ZM67.3853 90.1681H68.9981C69.2036 89.892 69.3848 89.5628 69.5438 89.1784C69.7202 88.7322 69.8548 88.2707 69.9459 87.7997C70.0564 87.2628 70.1448 86.6265 70.2088 85.8886C70.2707 85.1529 70.3016 84.2868 70.3016 83.2904V79.9101H78.5867V91.7788H76.6867V81.5185H72.1067V83.3368C72.1067 84.4857 72.0581 85.4909 71.9631 86.3504C71.8857 87.2076 71.7642 87.9433 71.6096 88.5597C71.4973 89.0843 71.3215 89.5933 71.086 90.0753C70.9135 90.4146 70.6899 90.7253 70.4232 90.9967C70.1413 91.2762 69.7999 91.4884 69.4245 91.6175C68.9998 91.7327 68.561 91.787 68.121 91.7788H67.3831L67.3853 90.1681ZM87.2584 92.0549C86.4343 92.0549 85.6832 91.9091 85.0049 91.6175C84.336 91.3352 83.7361 90.9117 83.2462 90.3758C82.757 89.7984 82.3787 89.1355 82.1305 88.4205C81.8519 87.5907 81.7159 86.7197 81.7284 85.8444C81.7284 84.9077 81.861 84.0549 82.1327 83.2904C82.4001 82.5238 82.7734 81.872 83.2462 81.3351C83.7367 80.7828 84.3222 80.3608 85.0027 80.0692C85.7162 79.7712 86.4831 79.6223 87.2562 79.6317C88.0803 79.6317 88.8249 79.7776 89.4877 80.0692C90.1682 80.3608 90.7536 80.7828 91.2441 81.3351C91.7346 81.872 92.1146 82.5238 92.3841 83.2904C92.6537 84.0571 92.7885 84.9077 92.7885 85.8444C92.7885 86.7945 92.6537 87.6539 92.3841 88.4205C92.1146 89.1717 91.7346 89.8235 91.2441 90.3758C90.7536 90.9127 90.1682 91.3258 89.4877 91.6175C88.8249 91.9091 88.0825 92.0549 87.2584 92.0549ZM87.2584 90.42C88.2858 90.42 89.1253 90.1151 89.7727 89.5009C90.4222 88.8867 90.7448 87.9522 90.7448 86.695V84.9938C90.7448 83.7345 90.4222 82.7999 89.7727 82.1858C89.1253 81.5715 88.2858 81.2667 87.2584 81.2667C86.2289 81.2667 85.3915 81.5715 84.742 82.1858C84.0924 82.7999 83.7699 83.7345 83.7699 84.9916V86.6928C83.7699 87.9522 84.0946 88.8867 84.742 89.5009C85.3915 90.1151 86.2289 90.42 87.2584 90.42ZM95.9081 79.9079H97.7617V86.4874L97.5717 89.3396H97.6667L99.1845 86.8099L104.074 79.9079H105.83V91.7788H103.979V85.1993L104.169 82.347H104.074L102.556 84.8767L97.6667 91.7788H95.9103L95.9081 79.9079ZM100.917 78.0675C100.064 78.0675 99.3834 77.9062 98.8774 77.5859C98.3742 77.2521 97.9589 76.8019 97.6667 76.2735L97.1917 75.3986L98.8531 74.6872L99.6838 76.5718C99.8738 76.6182 100.079 76.6579 100.302 76.6889C100.713 76.7174 101.125 76.7174 101.535 76.6889C101.756 76.6579 101.962 76.6182 102.152 76.5718L102.982 74.6872L104.644 75.3986L104.169 76.2735C103.877 76.8019 103.461 77.2521 102.958 77.5859C102.452 77.9062 101.772 78.0675 100.917 78.0675ZM113.643 90.1681H115.043C115.534 89.4015 115.929 88.4448 116.23 87.2938C116.53 86.1427 116.68 84.8237 116.68 83.3368V79.9079H124.965V90.1681H127.005V95H125.273V91.7766H115.375V94.9978H113.643V90.1681ZM123.065 90.1681V81.5185H118.485V83.4274C118.485 85.0071 118.342 86.357 118.057 87.4771C117.789 88.5818 117.465 89.4788 117.085 90.1681H123.065ZM134.26 92.0549C133.436 92.0549 132.685 91.9091 132.007 91.6175C131.338 91.3352 130.738 90.9117 130.248 90.3758C129.759 89.7984 129.381 89.1355 129.132 88.4205C128.854 87.5907 128.718 86.7197 128.73 85.8444C128.73 84.9077 128.863 84.0549 129.132 83.2904C129.402 82.5238 129.773 81.872 130.248 81.3351C130.739 80.7828 131.324 80.3608 132.004 80.0692C132.718 79.7712 133.485 79.6223 134.258 79.6317C135.082 79.6317 135.827 79.7776 136.489 80.0692C137.17 80.3608 137.755 80.7828 138.246 81.3351C138.736 81.872 139.116 82.5238 139.386 83.2904C139.655 84.0571 139.788 84.9077 139.788 85.8444C139.788 86.7945 139.655 87.6539 139.386 88.4205C139.116 89.1717 138.736 89.8235 138.246 90.3758C137.755 90.9127 137.17 91.3258 136.489 91.6175C135.827 91.9091 135.084 92.0549 134.26 92.0549ZM134.26 90.42C135.288 90.42 136.127 90.1151 136.774 89.5009C137.424 88.8867 137.747 87.9522 137.747 86.695V84.9938C137.747 83.7345 137.424 82.7999 136.774 82.1858C136.127 81.5715 135.288 81.2667 134.26 81.2667C133.231 81.2667 132.393 81.5715 131.742 82.1858C131.094 82.7999 130.769 83.7345 130.769 84.9916V86.6928C130.769 87.9522 131.094 88.8867 131.742 89.5009C132.393 90.1151 133.231 90.42 134.26 90.42ZM142.912 79.9079H145.404L149.129 86.072H149.224L152.927 79.9079H155.395V91.7788H153.543V82.1173H153.424L152.737 83.4053L149.153 89.2932L145.57 83.4053L144.881 82.1173H144.764V91.7788H142.912V79.9079Z" fill="#212121"/>
</svg>
